<?xml version="1.0" encoding="utf-8"?>
<!-- Generator: Adobe Illustrator 25.0.0, SVG Export Plug-In . SVG Version: 6.00 Build 0)  -->
<svg version="1.1" id="Layer_1" xmlns="http://www.w3.org/2000/svg" xmlns:xlink="http://www.w3.org/1999/xlink" x="0px" y="0px"
	 viewBox="0 0 100 100" style="enable-background:new 0 0 100 100;" xml:space="preserve">
<style type="text/css">
	.st0{fill:#0032A0;}
</style>
<path class="st0" d="M50,1.4C23,1.4,1.1,23.3,1.1,50.3S23,99.1,50,99.1s48.9-21.9,48.9-48.9S77,1.4,50,1.4z M27.1,58.9
	c-1.4,0-2.4-1-2.4-2.4V43.9c0-1.2,1-2.4,2.4-2.4H50V27.8c0-2.2,2.4-3.4,3.9-1.8l22.5,22.7c1,1,1,2.4,0,3.4L53.9,74.7
	c-1.4,1.4-3.9,0.4-3.9-1.8v-14C50,58.9,27.1,58.9,27.1,58.9z"/>
</svg>
