<?xml version="1.0" encoding="utf-8"?>
<!-- Generator: Adobe Illustrator 25.0.0, SVG Export Plug-In . SVG Version: 6.00 Build 0)  -->
<svg version="1.1" id="Layer_1" xmlns="http://www.w3.org/2000/svg" xmlns:xlink="http://www.w3.org/1999/xlink" x="0px" y="0px"
	 viewBox="0 0 1491.6 653" style="enable-background:new 0 0 1491.6 653;" xml:space="preserve">
<style type="text/css">
	.st0{fill:#F2F2F2;}
</style>
<path class="st0" d="M1435,328.3l55.8-47.7l-111.6-67.1l16.5-21.1l-70.8-91l11.4-62.8l-65.8,8.7l-30,43.3l-32.9,1.1l-212.4-91h-72.2
	L837,35.9L460.1,16.4L180.4,179.9l-44.3,91l-23.6,154.3L8.8,580.7l69.4,75.3l117.3,8.7L174,639.2h-46.5v-44.9l163.1-139.7
	l169.5,210.1h211l-11.4-21.1l-98.7-33.6l-26.5-162.5l271.8-72.6v169l77.2,112.1h131.6l-22.9-21.1h-47.9L922.9,513l17.9,11.4
	l82.3,26.5l41.5,88.3l49.4-26.5v-95.3L998.7,397.1l64.4-117.5l240.3,39L1435,328.3z"/>
</svg>
