<?xml version="1.0" encoding="utf-8"?>
<!-- Generator: Adobe Illustrator 25.0.0, SVG Export Plug-In . SVG Version: 6.00 Build 0)  -->
<svg version="1.1" id="Layer_1" xmlns="http://www.w3.org/2000/svg" xmlns:xlink="http://www.w3.org/1999/xlink" x="0px" y="0px"
	 viewBox="0 0 1697.8 140.9" style="enable-background:new 0 0 1697.8 140.9;" xml:space="preserve">
<style type="text/css">
	.st0{fill:#003DA5;}
</style>
<path class="st0" d="M658.3,69l7.8-8.8l-15.6-12.4l2.3-3.9l-9.9-16.8l1.6-11.6l-9.2,1.6l-4.2,8l-4.6,0.2L596.8,8.5h-10.1l-12,6.5
	L522,11.4l-39.1,30.2l-6.2,16.8l-3.3,28.5l-14.5,28.7l9.7,13.9l16.4,1.6l-3-4.7h-6.5v-8.3l22.8-25.8l23.7,38.8h29.5l-1.6-3.9
	l-13.8-6.2l-3.7-30l38-13.4v31.2l10.8,20.7h18.4l-3.2-3.9h-6.7l-3-22.5l2.5,2.1l11.5,4.9l5.8,16.3l6.9-4.9v-17.6l-16.1-22.2l9-21.7
	l33.6,7.2L658.3,69z"/>
<path class="st0" d="M27.3,34c0-13.2-0.7-16.4-8.7-17.3l-5.7-0.5c-1.4-1.1-1.2-3.7,0.2-4.5c9.6-0.9,21.7-1.4,38.3-1.4
	c11.2,0,21.9,0.9,29.9,5C89,19,94.9,26.2,94.9,37.6c0,12.8-7.5,19.4-18.2,24.4c0,1.8,1.4,2.3,3.4,2.7c9.6,1.8,23.9,10.7,23.9,29.8
	c0,20.7-15.3,34.6-47.4,34.6c-5.2,0-13.9-0.5-21.4-0.5c-7.8,0-13.9,0.4-20.5,0.5c-1.1-0.5-1.4-3.4-0.4-4.5l3.2-0.5
	c9.4-1.4,9.8-3.6,9.8-22.3V34z M41.9,57.7c0,5,0.2,5.3,9.3,5c18.2-0.7,28-6.1,28-22.8c0-17.5-13-24.1-26.6-24.1
	c-3.9,0-6.6,0.4-8.2,1.1c-1.8,0.5-2.5,1.4-2.5,4.6L41.9,57.7z M41.9,99.1c0,6.4,0.4,15.5,3.7,19.4c3.4,4.1,8.7,5,14.1,5
	c15.9,0,28-7.1,28-24.9c0-14.1-7.1-30.5-35.5-30.5c-9.6,0-10.3,1.1-10.3,4.6L41.9,99.1z"/>
<path class="st0" d="M135.1,37.6c0-18.5-0.4-21.2-10.9-22.5l-2.9-0.4c-1.1-0.7-0.7-3.9,0.4-4.5c7.7,0.4,13.7,0.5,21,0.5h33.5
	c11.4,0,21.9,0,24.1-0.5c1.1,3,2.1,15.9,2.9,23.7c-0.7,1.1-3.6,1.4-4.5,0.4c-2.7-8.4-4.3-14.6-13.5-16.9c-3.7-0.9-9.4-1.1-17.3-1.1
	h-12.8c-5.3,0-5.3,0.4-5.3,7.1V59c0,5,0.5,5,5.9,5H166c7.5,0,13-0.4,15.1-1.1s3.4-1.8,4.3-6.2l1.4-7.3c0.9-1.1,3.9-1.1,4.6,0.2
	c0,4.3-0.7,11.2-0.7,18c0,6.4,0.7,13.2,0.7,17.1c-0.7,1.2-3.7,1.2-4.6,0.2l-1.6-7c-0.7-3.2-2-5.9-5.5-6.8c-2.5-0.7-6.8-0.9-13.7-0.9
	h-10.3c-5.3,0-5.9,0.2-5.9,4.8v25.1c0,9.4,0.5,15.5,3.4,18.5c2.1,2.1,5.9,4.1,21.6,4.1c13.7,0,18.9-0.7,22.8-2.7
	c3.2-1.8,8-8,12.7-17.3c1.2-0.9,3.7-0.4,4.5,1.2c-1.2,6.2-5.7,20-8,24.8c-16-0.4-31.9-0.5-47.8-0.5h-16c-7.7,0-13.7,0.2-24.2,0.5
	c-1.1-0.5-1.4-3.4-0.4-4.5l5.9-0.5c10.2-0.9,11-3.6,11-22.3V37.6L135.1,37.6z"/>
<path class="st0" d="M288.9,87.1c-1.2-3.9-2-4.5-7.3-4.5h-26.9c-4.5,0-5.5,0.5-6.8,4.3l-6.2,18.7c-2.7,8-3.9,12.8-3.9,14.8
	c0,2.1,0.9,3.2,5.2,3.6l5.9,0.5c1.2,0.9,1.2,3.7-0.4,4.5c-4.6-0.4-10.2-0.4-18.5-0.5c-5.9,0-12.3,0.4-17.1,0.5
	c-1.1-0.7-1.4-3.6-0.4-4.5l5.9-0.5c4.3-0.4,8.2-2.3,10.7-8.7c3.2-8.2,8.2-19.8,15.7-39.7L263,27.5c2.5-6.4,3.6-9.8,3-12.7
	c4.3-1.2,7.3-4.5,9.3-6.8c1.1,0,2.3,0.4,2.7,1.6c2.3,7.8,5.2,16,7.8,23.9l24.4,71.6c5.2,15.3,7.5,18,15.1,18.9l4.8,0.5
	c1.2,0.9,0.9,3.7,0,4.5c-7.3-0.4-13.5-0.5-21.6-0.5c-8.6,0-15.3,0.4-20.5,0.5c-1.4-0.7-1.6-3.6-0.4-4.5l5.2-0.5
	c3.7-0.4,6.2-1.4,6.2-3.2c0-2-0.9-5.2-2.3-9.4L288.9,87.1z M253.6,71.3c-1.4,4.1-1.2,4.3,3.7,4.3h21.9c5.2,0,5.5-0.7,3.9-5.5
	l-9.6-29c-1.4-4.3-3-9.1-4.1-11.2H269c-0.5,0.9-2.3,5.2-4.3,10.5L253.6,71.3z"/>
<path class="st0" d="M350.2,37.8c0-16.9-0.5-20-7.8-20.9l-5.7-0.7c-1.2-0.9-1.2-3.7,0.2-4.5c10-0.9,22.3-1.4,39.7-1.4
	c11,0,21.6,0.9,29.8,5.3c8.6,4.5,14.8,12.5,14.8,24.9c0,16.9-13.4,26.2-22.3,29.8c-0.9,1.1,0,2.9,0.9,4.3
	c14.3,23,23.7,37.2,35.8,47.4c3,2.7,7.5,4.6,12.3,5c0.9,0.4,1.1,1.8,0.2,2.5c-1.6,0.5-4.5,0.9-7.8,0.9c-15.1,0-24.2-4.5-36.9-22.5
	c-4.6-6.6-11.9-18.9-17.5-26.9c-2.7-3.9-5.5-5.7-12.7-5.7c-8,0-8.4,0.2-8.4,3.9v22.5c0,18.7,0.4,20.9,10.7,22.3l3.7,0.5
	c1.1,0.9,0.7,3.9-0.4,4.5c-8-0.4-14.1-0.5-21.2-0.5c-7.5,0-13.9,0.2-22.3,0.5c-1.1-0.5-1.4-3.2-0.4-4.5l4.5-0.5
	c10.3-1.2,10.7-3.6,10.7-22.3L350.2,37.8L350.2,37.8z M364.8,63.2c0,3.2,0,5.2,0.5,5.9c0.5,0.5,3.2,0.9,12.3,0.9
	c6.4,0,13.2-0.7,18.4-4.6c4.8-3.7,8.9-10,8.9-22.1c0-14.1-8.7-27.4-28.5-27.4c-11.1,0-11.6,0.7-11.6,5.7L364.8,63.2z"/>
<g>
	<path class="st0" d="M771.1,55.2c0-10.7-0.3-30.5-3.3-35.8c-1.2-2-4.3-3.3-8.7-3.6l-4.3-0.3c-1.1-1.2-0.6-3.4,0.3-4.2
		c6.5,0.3,13,0.5,19.7,0.5c7.3,0,11.9-0.2,18.1-0.5c1.4,0.9,1.2,3.1,0.3,4.2l-4.2,0.3c-4.3,0.3-7.8,1.9-8.7,4.2
		c-2.6,5.7-2.5,25.6-2.5,35.2v19.5c0,15-2.5,30.8-12.1,41.2c-7.4,8.1-20.2,12.6-33,12.6c-11.9,0-23.9-2.2-32.2-9.5
		c-9.1-7.6-13.5-20.2-13.5-40.8V37.6c0-18-0.3-20.9-10.4-21.7l-4-0.5c-1.1-0.6-0.6-3.6,0.3-4.2c8.7,0.3,14.6,0.5,21.4,0.5
		c7.1,0,12.7-0.2,21.2-0.5c1.1,0.5,1.4,3.4,0.3,4.2l-4.2,0.3c-10.1,0.9-10.4,3.9-10.4,21.7v37.4c0,27.7,8.7,46,35,46
		c25.1,0,34.6-19.7,34.6-45.9V55.2L771.1,55.2z"/>
	<path class="st0" d="M910.4,96.5c0,5.1,0,25.7,0.5,30.2c-0.3,1.1-1.4,1.9-3.3,1.9c-2-2.9-7.1-9-22.2-26l-40-45.6
		c-4.7-5.4-16.4-19.5-20-23.3h-0.3c-0.6,2-0.9,6-0.9,11.2v37.7c0,8.1,0.3,30.5,3.1,35.8c1.2,1.9,4.5,2.9,8.8,3.3l5.4,0.5
		c1.1,1.4,0.9,3.4-0.3,4.3c-7.8-0.3-13.8-0.5-20.2-0.5c-7.3,0-11.9,0.2-18,0.5c-1.2-0.9-1.4-3.3-0.3-4.3l4.7-0.5
		c4-0.3,6.7-1.6,7.6-3.4c2.5-6.2,2.2-27.3,2.2-35.5V32.8c0-4.8-0.2-8.5-3.9-12.4c-2.5-2.5-6.5-3.6-10.7-4.2l-2.9-0.3
		c-1.1-1.1-1.1-3.6,0.3-4.3c7.3,0.5,16.4,0.5,19.5,0.5c2.8,0,5.7-0.2,7.9-0.5c3.4,8.8,24,31.6,29.5,38l16.7,18.8
		c11.8,13.5,20.3,22.9,28.5,31.3h0.3c0.6-0.9,0.6-3.6,0.6-7.3V55.4c0-8.1-0.2-30.5-3.4-35.8c-1.1-1.6-3.9-2.6-10.7-3.4l-2.9-0.3
		c-1.2-1.1-1.1-3.9,0.3-4.3c7.9,0.3,13.8,0.5,20.3,0.5c7.4,0,11.9-0.2,17.8-0.5c1.4,0.9,1.4,3.3,0.3,4.3l-2.5,0.3
		c-5.6,0.9-9,2.2-9.6,3.6c-2.9,6.2-2.6,27.6-2.6,35.5v41.2L910.4,96.5z"/>
	<path class="st0" d="M952.7,38c0-18.3-0.3-21.2-10.5-22.2l-4.3-0.3c-1.1-0.6-0.6-3.9,0.3-4.3c8.7,0.3,14.6,0.5,21.7,0.5
		c7,0,12.7-0.2,21.4-0.5c1.1,0.5,1.4,3.6,0.3,4.3l-4.3,0.3c-10.2,0.9-10.5,3.7-10.5,22.2v61.5c0,18.3,0.3,20.8,10.5,21.9l4.3,0.5
		c1.1,0.6,0.6,3.9-0.3,4.3c-8.7-0.3-14.6-0.5-21.4-0.5c-7.3,0-13.2,0.2-21.7,0.5c-1.1-0.5-1.4-3.3-0.3-4.3l4.3-0.5
		c10.2-1.2,10.5-3.6,10.5-21.9V38z"/>
	<path class="st0" d="M1006.2,30.1c-4-9.6-6.5-13.3-14-14.1l-3.1-0.3c-1.2-1.1-1.1-3.4,0.3-4.3c5,0.3,10.5,0.5,18,0.5
		c7.6,0,13.6-0.2,20.9-0.5c1.2,0.6,1.6,3.3,0.3,4.3L1026,16c-6.5,0.9-7.9,1.9-8.1,3.3c0.3,1.7,3.3,11,8.7,24.2
		c7.9,20,15.8,39.8,24.5,59.5c5.4-11.5,12.7-29.1,16.6-38.3c5.1-11.8,13.2-31.3,16.1-38.6c1.4-3.6,1.6-5.6,1.6-6.7s-1.7-2.6-7.8-3.3
		l-3.1-0.3c-1.2-1.1-0.9-3.6,0.3-4.3c4.8,0.3,11.5,0.5,18,0.5c5.7,0,11-0.2,16.7-0.5c1.2,0.6,1.2,3.4,0.3,4.3l-5.1,0.3
		c-4.2,0.3-6.7,2.5-9,6c-4.8,8.1-11.6,22.2-19.4,39.7l-9.3,21.2c-7,15.8-15,36-18,45.1c-0.5,0.3-1.2,0.5-1.9,0.5
		c-0.9,0-1.7-0.2-2.6-0.5c-1.9-7.3-4.8-15.7-7.9-22.9L1006.2,30.1z"/>
	<path class="st0" d="M1127.7,37.7c0-18-0.3-20.6-10.5-21.7l-2.8-0.3c-1.1-0.6-0.6-3.9,0.3-4.3c7.4,0.3,13.3,0.5,20.3,0.5h32.4
		c11,0,21.2,0,23.3-0.5c1.1,2.9,2,15.3,2.8,22.9c-0.6,1.1-3.4,1.4-4.3,0.3c-2.6-8.1-4.2-14.1-13.2-16.4c-3.6-0.9-9.1-1.1-16.7-1.1
		h-12.4c-5.1,0-5.1,0.3-5.1,7v34.6c0,4.8,0.5,4.8,5.7,4.8h10.1c7.3,0,12.6-0.3,14.7-1.1c2-0.6,3.3-1.7,4.2-6l1.4-7.1
		c0.9-1.1,3.9-1.1,4.5,0.2c0,4.2-0.6,10.9-0.6,17.4c0,6.2,0.6,12.7,0.6,16.6c-0.6,1.2-3.6,1.2-4.5,0.2l-1.6-6.7
		c-0.6-3.1-1.9-5.7-5.4-6.5c-2.5-0.6-6.5-0.9-13.3-0.9h-10.1c-5.1,0-5.7,0.2-5.7,4.7v24.3c0,9.1,0.5,15,3.3,18c2,2,5.7,4,20.9,4
		c13.3,0,18.3-0.6,22.2-2.6c3.1-1.7,7.8-7.8,12.2-16.7c1.2-0.9,3.6-0.3,4.3,1.2c-1.2,6-5.6,19.4-7.8,24c-15.5-0.3-30.8-0.5-46.3-0.5
		H1135c-7.4,0-13.3,0.2-23.4,0.5c-1.1-0.5-1.4-3.3-0.3-4.3l5.7-0.5c9.8-0.9,10.7-3.4,10.7-21.5L1127.7,37.7z"/>
	<path class="st0" d="M1228.5,37.9c0-16.4-0.5-19.4-7.6-20.2l-5.6-0.6c-1.2-0.9-1.2-3.6,0.2-4.3c9.6-0.9,21.5-1.4,38.4-1.4
		c10.7,0,20.9,0.9,28.8,5.1c8.2,4.3,14.3,12.1,14.3,24.2c0,16.4-13,25.4-21.5,28.8c-0.9,1.1,0,2.8,0.9,4.2
		c13.8,22.3,22.9,36.1,34.7,45.9c2.9,2.6,7.3,4.5,11.9,4.8c0.9,0.3,1.1,1.7,0.2,2.5c-1.6,0.5-4.3,0.9-7.6,0.9
		c-14.7,0-23.4-4.3-35.8-21.7c-4.5-6.4-11.6-18.3-16.9-26c-2.6-3.9-5.4-5.6-12.2-5.6c-7.8,0-8.1,0.2-8.1,3.7v21.7
		c0,18.1,0.3,20.2,10.4,21.5l3.6,0.5c1.1,0.9,0.6,3.9-0.3,4.3c-7.8-0.3-13.6-0.5-20.6-0.5c-7.3,0-13.5,0.2-21.5,0.5
		c-1.1-0.5-1.4-3.1-0.3-4.3l4.3-0.5c10.1-1.2,10.4-3.4,10.4-21.5V37.9z M1242.7,62.7c0,3.1,0,5,0.5,5.7c0.5,0.5,3.1,0.9,11.9,0.9
		c6.2,0,12.7-0.6,17.8-4.5c4.7-3.6,8.7-9.6,8.7-21.4c0-13.6-8.5-26.7-27.6-26.7c-10.7,0-11.2,0.6-11.2,5.6v40.3L1242.7,62.7z"/>
	<path class="st0" d="M1356.5,128.5c-14.6,0-23.7-4.5-27-6.4c-2-3.9-4.3-16.1-4.7-24.2c0.9-1.2,3.4-1.6,4.2-0.5
		c2.6,8.8,9.6,25.7,29.8,25.7c14.6,0,21.5-9.5,21.5-19.8c0-7.6-1.6-16.1-14.1-24.2l-16.4-10.7c-8.7-5.7-18.6-15.5-18.6-29.8
		c0-16.4,12.7-29.8,35.2-29.8c5.4,0,11.6,0.9,16.1,2.2c2.2,0.5,4.7,1.1,6,1.1c1.6,4.2,3.1,13.8,3.1,21.1c-0.6,1.1-3.4,1.6-4.3,0.5
		c-2.2-8.2-7-19.5-23.4-19.5c-16.9,0-20.6,11.2-20.6,19.2c0,10.1,8.2,17.1,14.7,21.2l13.8,8.7c10.9,6.7,21.5,16.7,21.5,33.2
		C1393.2,115.5,1379,128.5,1356.5,128.5L1356.5,128.5z"/>
	<path class="st0" d="M1424.3,38c0-18.3-0.3-21.2-10.5-22.2l-4.3-0.3c-1.1-0.6-0.6-3.9,0.3-4.3c8.7,0.3,14.6,0.5,21.7,0.5
		c7,0,12.7-0.2,21.4-0.5c1.1,0.5,1.4,3.6,0.3,4.3l-4.3,0.3c-10.2,0.9-10.5,3.7-10.5,22.2v61.5c0,18.3,0.3,20.8,10.5,21.9l4.3,0.5
		c1.1,0.6,0.6,3.9-0.3,4.3c-8.7-0.3-14.6-0.5-21.4-0.5c-7.3,0-13.2,0.2-21.7,0.5c-1.1-0.5-1.4-3.3-0.3-4.3l4.3-0.5
		c10.2-1.2,10.5-3.6,10.5-21.9V38z"/>
	<path class="st0" d="M1524.1,99.9c0,18.1,0.3,20.6,10.4,21.5l5.6,0.5c1.1,0.6,0.6,3.9-0.3,4.3c-9.8-0.3-15.7-0.5-22.6-0.5
		c-7,0-13,0.2-24,0.5c-1.1-0.5-1.4-3.4,0-4.3l6.2-0.5c9.8-0.9,10.7-3.4,10.7-21.5V22.7c0-5.4,0-5.6-5.1-5.6h-9.5
		c-7.4,0-16.9,0.3-21.2,4.3c-4.2,3.7-5.9,7.6-7.8,11.9c-1.4,1.1-3.7,0.2-4.5-1.2c2.8-7.8,5.4-18.8,6.5-25.7c0.5-0.3,2.8-0.5,3.3,0
		c1.1,5.6,6.7,5.4,14.7,5.4h69.9c9.3,0,10.9-0.3,13.5-4.8c0.9-0.3,2.8-0.2,3.1,0.5c-1.9,7.1-3.1,21.1-2.6,26.2
		c-0.6,1.4-3.6,1.4-4.5,0.3c-0.5-4.3-1.7-10.7-4.3-12.6c-4-2.9-10.5-4.3-20-4.3h-12.2c-5.1,0-5,0.2-5,5.9v76.9L1524.1,99.9z"/>
	<path class="st0" d="M1634.6,99.6c0,18.4,1.1,21.2,10.4,21.9l6.5,0.5c1.1,1.1,0.6,3.9-0.3,4.3c-10.7-0.3-16.6-0.5-23.4-0.5
		c-7.3,0-13.5,0.2-22.6,0.5c-1.1-0.5-1.4-3.3-0.3-4.3l5.4-0.5c10.1-1.1,10.4-3.4,10.4-21.9v-8.8c0-9.5-0.5-11.8-5.6-21.4l-20.3-39.7
		c-5.9-11.5-8.5-12.2-13.6-13.2l-4.8-0.9c-1.1-1.2-0.9-3.6,0.3-4.3c5.6,0.3,11.8,0.5,20,0.5c7.9,0,14.1-0.2,18.4-0.5
		c1.6,0.5,1.6,3.3,0.5,4.3l-2.2,0.3c-6,1.1-7.3,1.7-7.3,3.1c0,1.7,4.5,11.6,5.4,13.3c6.4,12.7,12.7,26.4,19.5,38.3
		c5.4-9.1,11-19.2,16.3-29.1c4.8-9,11.2-20.8,11.2-22.8c0-1.1-3.1-2.2-7.3-2.8l-3.1-0.3c-1.2-1.2-1.1-3.6,0.3-4.3
		c6.2,0.3,11.2,0.5,16.6,0.5c5.4,0,10.2-0.2,16.1-0.5c1.4,0.9,1.6,3.3,0.3,4.3l-4.8,0.9c-9,1.4-14.1,12.4-22.8,27.3L1643,62.5
		c-7.8,13-8.1,14.7-8.1,27.9v9.1H1634.6z"/>
</g>
</svg>
