<svg enable-background="new 0 0 672 261" viewBox="0 0 672 261" xmlns="http://www.w3.org/2000/svg"><g fill="#003da5"><path d="m658.3 69 7.8-8.8-15.6-12.4 2.3-3.9-9.9-16.8 1.6-11.6-9.2 1.6-4.2 8-4.6.2-29.7-16.8h-10.1l-12 6.5-52.7-3.6-39.1 30.2-6.2 16.8-3.3 28.5-14.5 28.7 9.7 13.9 16.4 1.6-3-4.7h-6.5v-8.3l22.8-25.8 23.7 38.8h29.5l-1.6-3.9-13.8-6.2-3.7-30 38-13.4v31.2l10.8 20.7h18.4l-3.2-3.9h-6.7l-3-22.5 2.5 2.1 11.5 4.9 5.8 16.3 6.9-4.9v-17.6l-16.1-22.2 9-21.7 33.6 7.2z"/><path d="m27.3 34c0-13.2-.7-16.4-8.7-17.3l-5.7-.5c-1.4-1.1-1.2-3.7.2-4.5 9.6-.9 21.7-1.4 38.3-1.4 11.2 0 21.9.9 29.9 5 7.7 3.7 13.6 10.9 13.6 22.3 0 12.8-7.5 19.4-18.2 24.4 0 1.8 1.4 2.3 3.4 2.7 9.6 1.8 23.9 10.7 23.9 29.8 0 20.7-15.3 34.6-47.4 34.6-5.2 0-13.9-.5-21.4-.5-7.8 0-13.9.4-20.5.5-1.1-.5-1.4-3.4-.4-4.5l3.2-.5c9.4-1.4 9.8-3.6 9.8-22.3zm14.6 23.7c0 5 .2 5.3 9.3 5 18.2-.7 28-6.1 28-22.8 0-17.5-13-24.1-26.6-24.1-3.9 0-6.6.4-8.2 1.1-1.8.5-2.5 1.4-2.5 4.6zm0 41.4c0 6.4.4 15.5 3.7 19.4 3.4 4.1 8.7 5 14.1 5 15.9 0 28-7.1 28-24.9 0-14.1-7.1-30.5-35.5-30.5-9.6 0-10.3 1.1-10.3 4.6z"/><path d="m135.1 37.6c0-18.5-.4-21.2-10.9-22.5l-2.9-.4c-1.1-.7-.7-3.9.4-4.5 7.7.4 13.7.5 21 .5h33.5c11.4 0 21.9 0 24.1-.5 1.1 3 2.1 15.9 2.9 23.7-.7 1.1-3.6 1.4-4.5.4-2.7-8.4-4.3-14.6-13.5-16.9-3.7-.9-9.4-1.1-17.3-1.1h-12.8c-5.3 0-5.3.4-5.3 7.1v35.6c0 5 .5 5 5.9 5h10.3c7.5 0 13-.4 15.1-1.1s3.4-1.8 4.3-6.2l1.4-7.3c.9-1.1 3.9-1.1 4.6.2 0 4.3-.7 11.2-.7 18 0 6.4.7 13.2.7 17.1-.7 1.2-3.7 1.2-4.6.2l-1.6-7c-.7-3.2-2-5.9-5.5-6.8-2.5-.7-6.8-.9-13.7-.9h-10.3c-5.3 0-5.9.2-5.9 4.8v25.1c0 9.4.5 15.5 3.4 18.5 2.1 2.1 5.9 4.1 21.6 4.1 13.7 0 18.9-.7 22.8-2.7 3.2-1.8 8-8 12.7-17.3 1.2-.9 3.7-.4 4.5 1.2-1.2 6.2-5.7 20-8 24.8-16-.4-31.9-.5-47.8-.5h-16c-7.7 0-13.7.2-24.2.5-1.1-.5-1.4-3.4-.4-4.5l5.9-.5c10.2-.9 11-3.6 11-22.3v-63.8z"/><path d="m288.9 87.1c-1.2-3.9-2-4.5-7.3-4.5h-26.9c-4.5 0-5.5.5-6.8 4.3l-6.2 18.7c-2.7 8-3.9 12.8-3.9 14.8 0 2.1.9 3.2 5.2 3.6l5.9.5c1.2.9 1.2 3.7-.4 4.5-4.6-.4-10.2-.4-18.5-.5-5.9 0-12.3.4-17.1.5-1.1-.7-1.4-3.6-.4-4.5l5.9-.5c4.3-.4 8.2-2.3 10.7-8.7 3.2-8.2 8.2-19.8 15.7-39.7l18.2-48.1c2.5-6.4 3.6-9.8 3-12.7 4.3-1.2 7.3-4.5 9.3-6.8 1.1 0 2.3.4 2.7 1.6 2.3 7.8 5.2 16 7.8 23.9l24.4 71.6c5.2 15.3 7.5 18 15.1 18.9l4.8.5c1.2.9.9 3.7 0 4.5-7.3-.4-13.5-.5-21.6-.5-8.6 0-15.3.4-20.5.5-1.4-.7-1.6-3.6-.4-4.5l5.2-.5c3.7-.4 6.2-1.4 6.2-3.2 0-2-.9-5.2-2.3-9.4zm-35.3-15.8c-1.4 4.1-1.2 4.3 3.7 4.3h21.9c5.2 0 5.5-.7 3.9-5.5l-9.6-29c-1.4-4.3-3-9.1-4.1-11.2h-.4c-.5.9-2.3 5.2-4.3 10.5z"/><path d="m350.2 37.8c0-16.9-.5-20-7.8-20.9l-5.7-.7c-1.2-.9-1.2-3.7.2-4.5 10-.9 22.3-1.4 39.7-1.4 11 0 21.6.9 29.8 5.3 8.6 4.5 14.8 12.5 14.8 24.9 0 16.9-13.4 26.2-22.3 29.8-.9 1.1 0 2.9.9 4.3 14.3 23 23.7 37.2 35.8 47.4 3 2.7 7.5 4.6 12.3 5 .9.4 1.1 1.8.2 2.5-1.6.5-4.5.9-7.8.9-15.1 0-24.2-4.5-36.9-22.5-4.6-6.6-11.9-18.9-17.5-26.9-2.7-3.9-5.5-5.7-12.7-5.7-8 0-8.4.2-8.4 3.9v22.5c0 18.7.4 20.9 10.7 22.3l3.7.5c1.1.9.7 3.9-.4 4.5-8-.4-14.1-.5-21.2-.5-7.5 0-13.9.2-22.3.5-1.1-.5-1.4-3.2-.4-4.5l4.5-.5c10.3-1.2 10.7-3.6 10.7-22.3v-63.9zm14.6 25.4c0 3.2 0 5.2.5 5.9.5.5 3.2.9 12.3.9 6.4 0 13.2-.7 18.4-4.6 4.8-3.7 8.9-10 8.9-22.1 0-14.1-8.7-27.4-28.5-27.4-11.1 0-11.6.7-11.6 5.7z"/><path d="m71.9 207.7c0-6.9-.2-19.7-2.1-23.1-.8-1.3-2.8-2.1-5.6-2.3l-2.8-.2c-.7-.8-.4-2.2.2-2.7 4.2.2 8.4.3 12.7.3 4.7 0 7.7-.1 11.7-.3.9.6.8 2 .2 2.7l-2.7.2c-2.8.2-5 1.2-5.6 2.7-1.7 3.7-1.6 16.5-1.6 22.7v12.6c0 9.7-1.6 19.9-7.8 26.6-4.8 5.2-13 8.1-21.3 8.1-7.7 0-15.4-1.4-20.8-6.1-5.9-4.9-8.7-13-8.7-26.3v-26.3c0-11.6-.2-13.5-6.7-14l-2.6-.3c-.7-.4-.4-2.3.2-2.7 5.6.2 9.4.3 13.8.3 4.6 0 8.2-.1 13.7-.3.7.3.9 2.2.2 2.7l-2.7.2c-6.5.6-6.7 2.5-6.7 14v24.1c0 17.9 5.6 29.7 22.6 29.7 16.2 0 22.3-12.7 22.3-29.6v-12.7z"/><path d="m161.8 234.3c0 3.3 0 16.6.3 19.5-.2.7-.9 1.2-2.1 1.2-1.3-1.9-4.6-5.8-14.3-16.8l-25.8-29.4c-3-3.5-10.6-12.6-12.9-15h-.2c-.4 1.3-.6 3.9-.6 7.2v24.3c0 5.2.2 19.7 2 23.1.8 1.2 2.9 1.9 5.7 2.1l3.5.3c.7.9.6 2.2-.2 2.8-5-.2-8.9-.3-13-.3-4.7 0-7.7.1-11.6.3-.8-.6-.9-2.1-.2-2.8l3-.3c2.6-.2 4.3-1 4.9-2.2 1.6-4 1.4-17.6 1.4-22.9v-32.2c0-3.1-.1-5.5-2.5-8-1.6-1.6-4.2-2.3-6.9-2.7l-1.9-.2c-.7-.7-.7-2.3.2-2.8 4.7.3 10.6.3 12.6.3 1.8 0 3.7-.1 5.1-.3 2.2 5.7 15.5 20.4 19 24.5l10.8 12.1c7.6 8.7 13.1 14.8 18.4 20.2h.2c.4-.6.4-2.3.4-4.7v-23.8c0-5.2-.1-19.7-2.2-23.1-.7-1-2.5-1.7-6.9-2.2l-1.9-.2c-.8-.7-.7-2.5.2-2.8 5.1.2 8.9.3 13.1.3 4.8 0 7.7-.1 11.5-.3.9.6.9 2.1.2 2.8l-1.6.2c-3.6.6-5.8 1.4-6.2 2.3-1.9 4-1.7 17.8-1.7 22.9v26.6z"/><path d="m189.1 196.6c0-11.8-.2-13.7-6.8-14.3l-2.8-.2c-.7-.4-.4-2.5.2-2.8 5.6.2 9.4.3 14 .3 4.5 0 8.2-.1 13.8-.3.7.3.9 2.3.2 2.8l-2.8.2c-6.6.6-6.8 2.4-6.8 14.3v39.7c0 11.8.2 13.4 6.8 14.1l2.8.3c.7.4.4 2.5-.2 2.8-5.6-.2-9.4-.3-13.8-.3-4.7 0-8.5.1-14 .3-.7-.3-.9-2.1-.2-2.8l2.8-.3c6.6-.8 6.8-2.3 6.8-14.1z"/><path d="m223.6 191.5c-2.6-6.2-4.2-8.6-9-9.1l-2-.2c-.8-.7-.7-2.2.2-2.8 3.2.2 6.8.3 11.6.3 4.9 0 8.8-.1 13.5-.3.8.4 1 2.1.2 2.8l-1.7.2c-4.2.6-5.1 1.2-5.2 2.1.2 1.1 2.1 7.1 5.6 15.6 5.1 12.9 10.2 25.7 15.8 38.4 3.5-7.4 8.2-18.8 10.7-24.7 3.3-7.6 8.5-20.2 10.4-24.9.9-2.3 1-3.6 1-4.3s-1.1-1.7-5-2.1l-2-.2c-.8-.7-.6-2.3.2-2.8 3.1.2 7.4.3 11.6.3 3.7 0 7.1-.1 10.8-.3.8.4.8 2.2.2 2.8l-3.3.2c-2.7.2-4.3 1.6-5.8 3.9-3.1 5.2-7.5 14.3-12.5 25.6l-6 13.7c-4.5 10.2-9.7 23.2-11.6 29.1-.3.2-.8.3-1.2.3-.6 0-1.1-.1-1.7-.3-1.2-4.7-3.1-10.1-5.1-14.8z"/><path d="m302 196.4c0-11.6-.2-13.3-6.8-14l-1.8-.2c-.7-.4-.4-2.5.2-2.8 4.8.2 8.6.3 13.1.3h20.9c7.1 0 13.7 0 15-.3.7 1.9 1.3 9.9 1.8 14.8-.4.7-2.2.9-2.8.2-1.7-5.2-2.7-9.1-8.5-10.6-2.3-.6-5.9-.7-10.8-.7h-8c-3.3 0-3.3.2-3.3 4.5v22.3c0 3.1.3 3.1 3.7 3.1h6.5c4.7 0 8.1-.2 9.5-.7 1.3-.4 2.1-1.1 2.7-3.9l.9-4.6c.6-.7 2.5-.7 2.9.1 0 2.7-.4 7-.4 11.2 0 4 .4 8.2.4 10.7-.4.8-2.3.8-2.9.1l-1-4.3c-.4-2-1.2-3.7-3.5-4.2-1.6-.4-4.2-.6-8.6-.6h-6.5c-3.3 0-3.7.1-3.7 3v15.7c0 5.9.3 9.7 2.1 11.6 1.3 1.3 3.7 2.6 13.5 2.6 8.6 0 11.8-.4 14.3-1.7 2-1.1 5-5 7.9-10.8.8-.6 2.3-.2 2.8.8-.8 3.9-3.6 12.5-5 15.5-10-.2-19.9-.3-29.9-.3h-10c-4.8 0-8.6.1-15.1.3-.7-.3-.9-2.1-.2-2.8l3.7-.3c6.3-.6 6.9-2.2 6.9-13.9z"/><path d="m367 196.5c0-10.6-.3-12.5-4.9-13l-3.6-.4c-.8-.6-.8-2.3.1-2.8 6.2-.6 13.9-.9 24.8-.9 6.9 0 13.5.6 18.6 3.3 5.3 2.8 9.2 7.8 9.2 15.6 0 10.6-8.4 16.4-13.9 18.6-.6.7 0 1.8.6 2.7 8.9 14.4 14.8 23.3 22.4 29.6 1.9 1.7 4.7 2.9 7.7 3.1.6.2.7 1.1.1 1.6-1 .3-2.8.6-4.9.6-9.5 0-15.1-2.8-23.1-14-2.9-4.1-7.5-11.8-10.9-16.8-1.7-2.5-3.5-3.6-7.9-3.6-5 0-5.2.1-5.2 2.4v14c0 11.7.2 13 6.7 13.9l2.3.3c.7.6.4 2.5-.2 2.8-5-.2-8.8-.3-13.3-.3-4.7 0-8.7.1-13.9.3-.7-.3-.9-2-.2-2.8l2.8-.3c6.5-.8 6.7-2.2 6.7-13.9zm9.2 16c0 2 0 3.2.3 3.7.3.3 2 .6 7.7.6 4 0 8.2-.4 11.5-2.9 3-2.3 5.6-6.2 5.6-13.8 0-8.8-5.5-17.2-17.8-17.2-6.9 0-7.2.4-7.2 3.6v26z"/><path d="m449.6 255c-9.4 0-15.3-2.9-17.4-4.1-1.3-2.5-2.8-10.4-3-15.6.6-.8 2.2-1 2.7-.3 1.7 5.7 6.2 16.6 19.2 16.6 9.4 0 13.9-6.1 13.9-12.8 0-4.9-1-10.4-9.1-15.6l-10.6-6.9c-5.6-3.7-12-10-12-19.2 0-10.6 8.2-19.2 22.7-19.2 3.5 0 7.5.6 10.4 1.4 1.4.3 3 .7 3.9.7 1 2.7 2 8.9 2 13.6-.4.7-2.2 1-2.8.3-1.4-5.3-4.5-12.6-15.1-12.6-10.9 0-13.3 7.2-13.3 12.4 0 6.5 5.3 11 9.5 13.7l8.9 5.6c7 4.3 13.9 10.8 13.9 21.4-.1 12.2-9.3 20.6-23.8 20.6z"/><path d="m493.3 196.6c0-11.8-.2-13.7-6.8-14.3l-2.8-.2c-.7-.4-.4-2.5.2-2.8 5.6.2 9.4.3 14 .3 4.5 0 8.2-.1 13.8-.3.7.3.9 2.3.2 2.8l-2.8.2c-6.6.6-6.8 2.4-6.8 14.3v39.7c0 11.8.2 13.4 6.8 14.1l2.8.3c.7.4.4 2.5-.2 2.8-5.6-.2-9.4-.3-13.8-.3-4.7 0-8.5.1-14 .3-.7-.3-.9-2.1-.2-2.8l2.8-.3c6.6-.8 6.8-2.3 6.8-14.1z"/><path d="m557.7 236.5c0 11.7.2 13.3 6.7 13.9l3.6.3c.7.4.4 2.5-.2 2.8-6.3-.2-10.1-.3-14.6-.3s-8.4.1-15.5.3c-.7-.3-.9-2.2 0-2.8l4-.3c6.3-.6 6.9-2.2 6.9-13.9v-49.8c0-3.5 0-3.6-3.3-3.6h-6.1c-4.8 0-10.9.2-13.7 2.8-2.7 2.4-3.8 4.9-5 7.7-.9.7-2.4.1-2.9-.8 1.8-5 3.5-12.1 4.2-16.6.3-.2 1.8-.3 2.1 0 .7 3.6 4.3 3.5 9.5 3.5h45.1c6 0 7-.2 8.7-3.1.6-.2 1.8-.1 2 .3-1.2 4.6-2 13.6-1.7 16.9-.4.9-2.3.9-2.9.2-.3-2.8-1.1-6.9-2.8-8.1-2.6-1.9-6.8-2.8-12.9-2.8h-7.9c-3.3 0-3.2.1-3.2 3.8v49.6z"/><path d="m629 236.3c0 11.9.7 13.7 6.7 14.1l4.2.3c.7.7.4 2.5-.2 2.8-6.9-.2-10.7-.3-15.1-.3-4.7 0-8.7.1-14.6.3-.7-.3-.9-2.1-.2-2.8l3.5-.3c6.5-.7 6.7-2.2 6.7-14.1v-5.7c0-6.1-.3-7.6-3.6-13.8l-13.1-25.6c-3.8-7.4-5.5-7.9-8.8-8.5l-3.1-.6c-.7-.8-.6-2.3.2-2.8 3.6.2 7.6.3 12.9.3 5.1 0 9.1-.1 11.9-.3 1 .3 1 2.1.3 2.8l-1.4.2c-3.9.7-4.7 1.1-4.7 2 0 1.1 2.9 7.5 3.5 8.6 4.1 8.2 8.2 17 12.6 24.7 3.5-5.9 7.1-12.4 10.5-18.8 3.1-5.8 7.2-13.4 7.2-14.7 0-.7-2-1.4-4.7-1.8l-2-.2c-.8-.8-.7-2.3.2-2.8 4 .2 7.2.3 10.7.3s6.6-.1 10.4-.3c.9.6 1 2.1.2 2.8l-3.1.6c-5.8.9-9.1 8-14.7 17.6l-7 12.1c-5 8.4-5.2 9.5-5.2 18v5.9z"/></g></svg>