<?xml version="1.0" encoding="utf-8"?>
<!-- Generator: Adobe Illustrator 25.0.1, SVG Export Plug-In . SVG Version: 6.00 Build 0)  -->
<svg version="1.1" id="Layer_1" xmlns="http://www.w3.org/2000/svg" xmlns:xlink="http://www.w3.org/1999/xlink" x="0px" y="0px"
	 viewBox="0 0 512 512" style="enable-background:new 0 0 512 512;" xml:space="preserve">
<style type="text/css">
	.st0{fill:#0032A0;}
</style>
<path class="st0" d="M469.1,257.6L512,221l-85.7-51.5l12.7-16.2l-54.4-69.9l8.8-48.2l-50.5,6.7l-23,33.3l-25.3,0.8L131.3,6H75.8
	L9.8,33l-289.5-15l-214.9,125.6l-34,69.9l-18.1,118.5l-79.7,119.4l53.3,57.8l90.1,6.7l-16.5-19.6h-35.7V462l125.3-107.3l130.2,161.4
	h162.1l-8.8-16.2l-75.8-25.8l-20.4-124.8l208.8-55.8v129.8l59.3,86.1h101.1L129,493.2H92.2l-16.4-93.6l13.7,8.8l63.2,20.4l31.9,67.8
	l37.9-20.4v-73.2L134,310.5l49.5-90.3l184.6,30L469.1,257.6z"/>
</svg>
