<?xml version="1.0" encoding="utf-8"?>
<!-- Generator: Adobe Illustrator 25.0.0, SVG Export Plug-In . SVG Version: 6.00 Build 0)  -->
<svg version="1.1" id="Layer_1" xmlns="http://www.w3.org/2000/svg" xmlns:xlink="http://www.w3.org/1999/xlink" x="0px" y="0px"
	 viewBox="0 0 100 100" style="enable-background:new 0 0 100 100;" xml:space="preserve">
<style type="text/css">
	.st0{fill:#1E1B1C;}
</style>
<path class="st0" d="M45.2,1l-3.2,2L43.2,5c-1.5,1.9-1.7,4.6-0.3,6.7c0.9,1.4,2.5,2.2,3.8,2.1c1.3-0.1,2.3-0.6,3.2-1
	c0.9-0.4,1.6-0.7,1.9-0.7c0.3,0,0.1-0.2,0.4,0.3l0,0l0,0c0.6,0.9,0.3,2-0.6,2.5l-0.1,0.1l-0.1,0.1c-0.8,0.6-1.9,0.4-2.4-0.6
	l-3.3,1.8c1.2,2.3,3.7,3.3,6.1,2.7l1.2,1.9l3.2-2L55,17.1c1.5-1.9,1.8-4.6,0.3-6.7c-0.9-1.4-2.5-2.2-3.8-2.1c-1.3,0.1-2.3,0.6-3.2,1
	c-0.9,0.4-1.6,0.7-1.9,0.7c-0.3,0-0.1,0.2-0.4-0.3l0,0l0,0c-0.6-0.9-0.3-2,0.6-2.5L46.6,7l0.1-0.1c0.8-0.6,1.9-0.4,2.4,0.6l3.3-1.8
	c-1.2-2.3-3.8-3.3-6.1-2.7L45.2,1z M44.7,3.6C44.7,3.6,44.7,3.7,44.7,3.6c-0.1,0.1-0.2,0.1-0.2,0.1L44.7,3.6z M23.2,8l-1.6,1.6
	c-2.1-1.1-4.8-0.7-6.4,1.2c-1.1,1.2-1.5,3-1.1,4.3c0.4,1.3,1.1,2.2,1.6,3c0.6,0.8,1,1.5,1.1,1.8c0.1,0.3,0.2,0.1-0.2,0.5l0,0l0,0
	c-0.7,0.8-1.8,0.8-2.5,0l-0.1-0.1l-0.1-0.1c-0.8-0.7-0.8-1.9,0-2.6l-2.5-2.9c-1.9,1.7-2.2,4.5-1.2,6.7L8.5,23l2.7,2.7l1.6-1.6
	c2.1,1.1,4.8,0.7,6.4-1.2c1.1-1.2,1.5-3,1.1-4.3c-0.4-1.3-1.1-2.2-1.6-3c-0.6-0.8-1-1.5-1.1-1.8c-0.1-0.3-0.2-0.1,0.2-0.5l0,0l0,0
	c0.7-0.8,1.8-0.8,2.5,0l0.1,0.1l0.1,0.1c0.8,0.7,0.8,1.9,0,2.6l2.5,2.9c1.9-1.7,2.2-4.5,1.2-6.7l1.6-1.6L23.2,8z M78.8,8l-2.7,2.7
	l1.6,1.6c-1.1,2.2-0.7,4.9,1.1,6.6c1.2,1.2,2.9,1.6,4.2,1.2c1.3-0.4,2.1-1.1,2.9-1.7c0.8-0.6,1.4-1,1.7-1.1c0.3-0.1,0.1-0.2,0.5,0.2
	l0,0l0,0c0.8,0.7,0.8,1.9,0,2.6l-0.1,0.1l-0.1,0.1c-0.7,0.8-1.8,0.8-2.5,0l-2.8,2.6c1.7,1.9,4.4,2.3,6.5,1.2l1.6,1.6l2.7-2.7
	l-1.6-1.6c1.1-2.2,0.7-4.9-1.1-6.6c-1.2-1.2-2.9-1.5-4.2-1.2c-1.3,0.4-2.1,1.1-2.9,1.7c-0.8,0.6-1.4,1-1.7,1.1
	c-0.3,0.1-0.1,0.2-0.5-0.2l0,0l0,0c-0.8-0.7-0.8-1.9,0-2.6l0.1-0.1l0.1-0.1c0.7-0.8,1.8-0.8,2.5,0l2.8-2.6c-1.7-1.9-4.4-2.3-6.5-1.2
	L78.8,8z M23.1,10.6l0.2,0.2C23.2,10.7,23.2,10.7,23.1,10.6C23.1,10.7,23.1,10.6,23.1,10.6z M78.9,10.6
	C78.9,10.6,78.9,10.7,78.9,10.6c-0.1,0.1-0.1,0.1-0.2,0.2L78.9,10.6z M53.7,18.3l-0.2,0.1c0,0,0-0.1,0.1-0.1
	C53.6,18.4,53.7,18.4,53.7,18.3z M11.1,22.9C11.2,22.9,11.2,22.9,11.1,22.9c0.1,0.1,0.1,0.1,0.2,0.2L11.1,22.9z M90.9,22.9l-0.2,0.2
	C90.7,23,90.8,23,90.9,22.9C90.8,22.9,90.8,22.9,90.9,22.9z M50.1,23.6c-3,0-5.4,1.2-7,3.1c-1.6,1.8-2.4,4.2-2.4,6.6
	c0,2.4,0.8,4.7,2.4,6.6c1.6,1.8,4.1,3.1,7,3.1c3,0,5.4-1.2,7-3.1c1.6-1.8,2.4-4.2,2.4-6.6c0-2.4-0.8-4.7-2.4-6.6
	C55.5,24.8,53,23.6,50.1,23.6z M28.2,25.5c-0.7,0-1.4,0.2-2,0.5c-1.2,0.6-2.3,1.5-3,2.9c-0.6,1.4-0.7,3.1,0,4.7c0,0,0,0,0,0l3.7,9.6
	c0,0,0,0,0,0.1c0.3,0.8,0.9,1.5,1.5,2.1l-0.1-0.1l11.3,11.8v18.7v14.5c0,2.1,0.8,3.9,2.1,5.1c1.3,1.2,2.9,1.7,4.5,1.7
	c1.6,0,3.2-0.5,4.5-1.7c0.1-0.1,0.1-0.2,0.2-0.3c0.1,0.1,0.1,0.2,0.2,0.3c1.3,1.2,2.9,1.7,4.5,1.7c1.6,0,3.2-0.5,4.5-1.7
	c1.3-1.2,2.1-3,2.1-5.1V75.7V55.4l9.4-10.1l-0.1,0.1c0.6-0.6,1.2-1.3,1.5-2.1c0,0,0,0,0-0.1l3.7-9.6c0,0,0,0,0,0
	c0.7-1.6,0.6-3.4,0-4.7c-0.6-1.4-1.7-2.3-3-2.9c-1.2-0.6-2.7-0.7-4.1-0.2c-1.4,0.5-2.6,1.6-3.3,3.3c0,0,0,0,0,0l-3.3,8.5l-6.3,7.3
	H43.2l-6.3-7.3l-3.3-8.5c0,0,0,0,0,0c-0.7-1.6-1.9-2.8-3.3-3.3C29.6,25.5,28.9,25.5,28.2,25.5z M50.1,27.5c2,0,3.3,0.7,4.2,1.8
	c0.9,1.1,1.4,2.5,1.4,4c0,1.5-0.5,3-1.4,4c-0.9,1.1-2.2,1.8-4.2,1.8s-3.3-0.7-4.2-1.8c-0.9-1.1-1.4-2.5-1.4-4c0-1.5,0.5-3,1.4-4
	C46.7,28.2,48,27.5,50.1,27.5z M28.4,29.4c0.2,0,0.5,0,0.7,0.1c0.4,0.1,0.7,0.4,1.1,1.1l0,0l3.4,8.8c0.1,0.2,0.2,0.4,0.3,0.6
	l7.1,8.2c0.2,0.2,0.4,0.4,0.6,0.5c0.2,0.1,0.5,0.2,0.8,0.2h15.4c0.3,0,0.5-0.1,0.8-0.2c0.2-0.1,0.5-0.3,0.6-0.5l7.1-8.2
	c0.1-0.2,0.3-0.4,0.3-0.6l3.4-8.8l0,0c0.3-0.7,0.7-1,1.1-1.1c0.4-0.1,0.9-0.1,1.4,0.1c0.5,0.2,0.9,0.6,1,1c0.2,0.4,0.3,0.8-0.1,1.6
	c0,0,0,0,0,0l-3.7,9.6c-0.1,0.3-0.3,0.5-0.5,0.7c0,0-0.1,0.1-0.1,0.1L59,53.3c-0.3,0.4-0.5,0.8-0.5,1.3v21.1v14.5
	c0,1.1-0.3,1.7-0.8,2.2c-0.5,0.5-1.2,0.7-2,0.7c-0.8,0-1.5-0.3-2-0.7c-0.5-0.5-0.8-1-0.8-2.2V73.8v-1.9c0-0.3,0-0.5-0.1-0.8
	s-0.2-0.5-0.4-0.6c-0.2-0.2-0.4-0.3-0.6-0.4c-0.2-0.1-0.5-0.1-0.7-0.1c-0.5,0-1,0.2-1.3,0.6c-0.3,0.4-0.5,0.9-0.5,1.4v1.9v16.4
	c0,1.1-0.3,1.7-0.8,2.2c-0.5,0.5-1.2,0.7-2,0.7c-0.8,0-1.5-0.3-2-0.7c-0.5-0.5-0.8-1-0.8-2.2V75.7V56.3c0-0.5-0.2-1-0.5-1.4
	L31.1,42.6c0,0-0.1-0.1-0.1-0.1c-0.2-0.2-0.4-0.4-0.5-0.7l-3.7-9.6c0,0,0,0,0,0c-0.3-0.7-0.2-1.2-0.1-1.6c0.2-0.4,0.6-0.8,1-1
	C28,29.4,28.2,29.4,28.4,29.4z"/>
</svg>
