<?xml version="1.0" encoding="utf-8"?>
<!-- Generator: Adobe Illustrator 25.0.0, SVG Export Plug-In . SVG Version: 6.00 Build 0)  -->
<svg version="1.1" id="Layer_1" xmlns="http://www.w3.org/2000/svg" xmlns:xlink="http://www.w3.org/1999/xlink" x="0px" y="0px"
	 viewBox="0 0 100 100" style="enable-background:new 0 0 100 100;" xml:space="preserve">
<style type="text/css">
	.st0{fill:#0032A0;}
</style>
<path class="st0" d="M91.9,26.3c-0.1-0.2-0.1-0.3-0.2-0.5c-0.2-0.4-0.5-0.7-0.9-1c-1-1.3-2.1-2.5-3.6-3.3L56.1,3.7
	c-3.7-2.1-8.5-2.1-12.2,0L12.7,21.5c-1.4,0.8-2.6,2-3.6,3.3c-0.4,0.3-0.7,0.6-0.9,1C8.1,26,8.1,26.2,8,26.3C7.1,28.1,6.5,30,6.5,32
	v35.6c0,2.1,0.6,4.3,1.6,6.1c1.1,1.9,2.6,3.4,4.5,4.5L43.9,96c1.4,0.8,2.9,1.3,4.5,1.5c0.5,0.3,1,0.5,1.6,0.5s1.1-0.2,1.6-0.5
	c1.6-0.2,3.1-0.7,4.5-1.5l31.2-17.8c1.9-1.1,3.4-2.6,4.5-4.5s1.6-4,1.6-6.1l0,0V32.1C93.4,30,92.8,28.1,91.9,26.3z M47.2,9.5
	C48.1,9,49,8.7,50,8.7s1.9,0.3,2.8,0.8l30.4,17.4L50,46.1L16.8,26.8L47.2,9.5z M16.1,72.5c-0.8-0.5-1.5-1.2-2-2s-0.7-1.8-0.7-2.8
	V32.5l33.4,19.3v38.1L16.1,72.5z M86,70.4c-0.5,0.8-1.2,1.5-2,2L53.3,89.9V51.8l33.4-19.3v35.1C86.7,68.6,86.4,69.6,86,70.4z"/>
</svg>
