<?xml version="1.0" encoding="utf-8"?>
<!-- Generator: Adobe Illustrator 25.0.0, SVG Export Plug-In . SVG Version: 6.00 Build 0)  -->
<svg version="1.1" id="Layer_1" xmlns="http://www.w3.org/2000/svg" xmlns:xlink="http://www.w3.org/1999/xlink" x="0px" y="0px"
	 viewBox="0 0 100 100" style="enable-background:new 0 0 100 100;" xml:space="preserve">
<style type="text/css">
	.st0{fill:#1E1B1C;}
</style>
<path class="st0" d="M28.9,6.5v5H14.6v2.7v15.4v9c0,13.6-2.7,25.1-11.6,33.9L2,73.7v6h12.7v14.3h82.6V38.6V14.2v-2.7H82.9v-5h-6.6v5
	H35.5v-5H28.9z M21.2,18h7.7v3.8h6.6V18h40.8v3.8h6.6V18h7.7v7.7H21.2V18z M21.2,32.3h69.4v6.3c0,13.1-2.8,25.8-10.7,34.4H12
	c6.6-9.9,9.3-22.6,9.3-34.4V32.3z M28.9,41.1v7.7h7.7v-7.7H28.9z M44.4,41.1v7.7h7.7v-7.7H44.4z M59.8,41.1v7.7h7.7v-7.7H59.8z
	 M75.2,41.1v7.7h7.7v-7.7H75.2z M28.9,56.5l0,7.7h7.7l0-7.7H28.9z M44.1,56.5v7.7l7.7,0v-7.7H44.1z M59.8,56.5v7.7h7.7v-7.7H59.8z
	 M90.6,71.8v15.5H21.2v-7.7h63.3l1.1-1.1C87.7,76.4,89.1,74.1,90.6,71.8z"/>
</svg>
