<?xml version="1.0" encoding="utf-8"?>
<!-- Generator: Adobe Illustrator 25.0.0, SVG Export Plug-In . SVG Version: 6.00 Build 0)  -->
<svg version="1.1" id="Layer_1" xmlns="http://www.w3.org/2000/svg" xmlns:xlink="http://www.w3.org/1999/xlink" x="0px" y="0px"
	 viewBox="0 0 100 100" style="enable-background:new 0 0 100 100;" xml:space="preserve">
<style type="text/css">
	.st0{fill:#FDFFFF;}
</style>
<path class="st0" d="M15.4,2c-1,0.2-1.8,1.1-1.7,2.1v85.4c0,1.2,1,2.1,2.1,2.1h12.8v-4.3H18V6.2h64v81.1H54.3v4.3h29.9
	c1.2,0,2.1-1,2.1-2.1V4.1c0-1.2-1-2.1-2.1-2.1H15.8c-0.1,0-0.1,0-0.2,0C15.5,2,15.5,2,15.4,2z M28.6,27.6v4.3h42.7v-4.3
	C71.3,27.6,28.6,27.6,28.6,27.6z M28.6,40.4v4.3h42.7v-4.3H28.6z M41.5,57.5c-1.7,0-3,0.9-4,2.2c-1.5-0.3-3.1-0.3-4.4,0.8
	c-1.3,1.1-1.7,2.7-1.6,4.2c-1.4,0.8-2.5,1.9-2.8,3.5s0.5,3.1,1.5,4.2c-0.6,1.5-0.7,3.2,0.1,4.5c0.1,0.2,0.4,0.4,0.5,0.6v18.3
	c0,0.8,0.4,1.6,1.2,1.9c0.7,0.4,1.6,0.3,2.2-0.2l7.3-5.5l7.3,5.5c0.7,0.5,1.5,0.6,2.2,0.2s1.2-1.1,1.2-1.9V77.5
	c0.2-0.2,0.4-0.4,0.5-0.6c0.9-1.5,0.7-3.1,0.1-4.5c1-1.2,1.7-2.6,1.5-4.2c-0.3-1.6-1.4-2.8-2.8-3.5c0.1-1.5-0.3-3.2-1.6-4.2
	c-1.3-1.1-2.9-1.1-4.4-0.8C44.5,58.4,43.1,57.5,41.5,57.5z M45.7,60.1c0.1,0.1,0.3,0.2,0.2,0.1l-0.1,0.1
	C45.8,60.2,45.8,60.1,45.7,60.1z M41.5,61.7c0.7,0,0.8,0.1,0.9,0.7c0.1,0.3,0.3,0.6,0.5,0.9c0.1,0.1,0.2,0.3,0.8,0.5
	c0.6,0.3,1,0.3,1.1,0.3c0.4,0,0.8-0.1,1.1-0.3s0.9-0.3,1.2,0c0.4,0.3,0.4,0.4,0.1,1.1c-0.1,0.2-0.1,0.5-0.1,0.7
	c0,0.3,0.2,0.3,0.3,0.6c0.1,1,0.8,1.8,1.7,1.9c0.3,0.1,0.7,0.5,0.8,0.8c0.1,0.4-0.2,0.8-0.5,1c-0.6,0.4-1,1.1-1,1.8v0.7
	c0,0.5,0.1,0.9,0.4,1.3c0.1,0.1,0.2,0.9,0.1,1.1c-0.2,0.3-0.6,0.5-1,0.5c-0.8-0.1-1.6,0.2-2.1,0.8c0,0,0,0,0,0.1
	c-0.1,0.1,0,0.1-0.1,0.1c0,0,0,0-0.1,0c-0.4,0.4-0.7,1-0.7,1.5c0,0.6,0,0.6-0.5,0.7c-0.1,0-0.2,0.1-0.3,0.1c0,0,0,0-0.1,0
	s-0.6-0.2-0.9-0.5c-0.4-0.4-1-0.6-1.5-0.6h-0.8c-0.6,0-1.1,0.2-1.5,0.6s-0.7,0.5-1.2,0.3c-0.3-0.1-0.5-0.4-0.5-0.7
	c0-0.4-0.2-1-0.5-1.3c-0.2-0.3-0.5-0.5-0.6-0.6c-0.5-0.5-1.2-0.7-1.9-0.6c-0.4,0.1-0.8-0.2-1-0.5c-0.3-0.4-0.3-0.6,0-1
	s0.5-0.9,0.5-1.3v-0.7c0-0.7-0.4-1.4-1-1.8c-0.3-0.2-0.5-0.6-0.5-1c0.1-0.3,0.5-0.7,0.8-0.8c1-0.2,1.7-1,1.7-1.9
	c0.1-0.3,0.3-0.3,0.3-0.6c0-0.3-0.1-0.5-0.1-0.7c-0.2-0.7-0.2-0.8,0.1-1.1c0.3-0.3,0.9-0.2,1.2,0c0.7,0.4,1.5,0.4,2.1,0
	c0,0,0,0,0.1,0c0,0,0,0,0.1-0.1c0,0,0.1,0,0.1-0.1c0.6-0.2,1-0.7,1.2-1.3C40.6,62.1,41.1,61.7,41.5,61.7z M35,81.1
	c0.5,0.6,1.1,1.1,1.8,1.4c0,0,0,0,0.1,0.1c1.6,0.5,3.2,0.1,4.5-0.7h0.1h0.4c0.8,0.4,1.4,1.1,2.4,1.1c0.4,0,1.1-0.2,1.7-0.4
	c0,0,0.1,0,0.1-0.1h0.1v-0.1c0.7-0.3,1.2-0.7,1.6-1.2v10.5l-5.1-3.9c-0.8-0.6-1.8-0.6-2.5,0L35,91.6V81.1z"/>
</svg>
