<?xml version="1.0" encoding="utf-8"?>
<!-- Generator: Adobe Illustrator 25.0.0, SVG Export Plug-In . SVG Version: 6.00 Build 0)  -->
<svg version="1.1" id="Layer_1" xmlns="http://www.w3.org/2000/svg" xmlns:xlink="http://www.w3.org/1999/xlink" x="0px" y="0px"
	 viewBox="0 0 100 100" style="enable-background:new 0 0 100 100;" xml:space="preserve">
<style type="text/css">
	.st0{fill:#0032A0;}
</style>
<path class="st0" d="M50,1.9C23.4,1.9,1.9,23.4,1.9,50S23.4,98.1,50,98.1S98.1,76.6,98.1,50S76.6,1.9,50,1.9z M79.1,40L51.3,67.8
	L46.1,73c-0.7,0.7-1.6,1.1-2.6,1.1s-1.9-0.4-2.6-1.1l-5.2-5.2L21.8,53.9c-0.7-0.7-1.1-1.6-1.1-2.6s0.4-1.9,1.1-2.6l5.2-5.2
	c0.7-0.7,1.6-1.1,2.6-1.1s1.9,0.4,2.6,1.1l11.3,11.3l25.1-25.2c0.7-0.7,1.6-1.1,2.6-1.1s1.9,0.4,2.6,1.1l5.2,5.2
	c0.7,0.7,1.1,1.6,1.1,2.6C80.2,38.4,79.8,39.4,79.1,40z"/>
</svg>
