<?xml version="1.0" encoding="utf-8"?>
<!-- Generator: Adobe Illustrator 25.0.0, SVG Export Plug-In . SVG Version: 6.00 Build 0)  -->
<svg version="1.1" id="Layer_1" xmlns="http://www.w3.org/2000/svg" xmlns:xlink="http://www.w3.org/1999/xlink" x="0px" y="0px"
	 viewBox="0 0 100 100" style="enable-background:new 0 0 100 100;" xml:space="preserve">
<style type="text/css">
	.st0{fill:#FFFFFF;}
</style>
<path class="st0" d="M21.4,2.9c-0.9,0.2-1.5,1-1.5,1.9v3.8c0,0.7,0.3,1.3,0.9,1.7c0.6,0.3,1.3,0.3,1.9,0s0.9-1,0.9-1.7V6.7h65.9V50
	h-7.7l2.1-3.8l-2.1-3.8H65.1V50H44.3c-0.1,0-0.1,0-0.2,0c-1,0.1-1.8,0.9-1.8,2c0.1,1,0.9,1.8,2,1.8h49v1.9h-49
	c-0.7,0-1.3,0.3-1.7,0.9c-0.3,0.6-0.3,1.3,0,1.9c0.3,0.6,1,0.9,1.7,0.9h50.9c1,0,1.9-0.8,1.9-1.9v-5.7c0-1-0.8-1.9-1.9-1.9h-1.9V4.8
	c0-1-0.8-1.9-1.9-1.9H21.7c-0.1,0-0.1,0-0.2,0H21.4z M25.5,12.3c-6.2,0-11.3,5.1-11.3,11.3s5.1,11.3,11.3,11.3s11.3-5.1,11.3-11.3
	S31.7,12.3,25.5,12.3z M25.5,34.9h-4.4c-1.4,0-3.5,0.2-5.4,1.5s-3.4,3.8-3.4,7.4V64c-3.3,1.5-5.7,4.8-5.7,8.6c0,2.9,1.3,5.4,3.4,7.1
	c-4.2,2.2-7.1,6.7-7.1,11.7v3.8c0,1,0.8,1.9,1.9,1.9h22.6c0.1,0,0.1,0,0.2,0h45c0.1,0,0.1,0,0.2,0h22.4c1,0,1.9-0.8,1.9-1.9v-3.8
	c0-5.1-2.9-9.5-7.1-11.7c2-1.7,3.4-4.3,3.4-7.1c0-5.2-4.2-9.4-9.4-9.4c-5.2,0-9.4,4.2-9.4,9.4c0,2.9,1.3,5.4,3.4,7.1
	c-2.1,1.1-4,2.9-5.2,4.9c-1.3-2.1-3.1-3.8-5.2-4.9c2-1.7,3.4-4.3,3.4-7.1c0-5.2-4.2-9.4-9.4-9.4s-9.4,4.2-9.4,9.4
	c0,2.9,1.3,5.4,3.4,7.1c-2.1,1.1-4,2.9-5.2,4.9c-1.3-2.1-3.1-3.8-5.2-4.9c2-1.7,3.4-4.3,3.4-7.1c0-4.5-3.3-8.4-7.5-9.2V46.2l8.1-2.9
	l0.1-0.1c0,0,0,0,0.1,0c1.6-0.5,2.9-1.3,3.8-2.5h0.1l9.4-12.2c0,0,0,0,0-0.1c1.7-2.3,1.5-5.7-0.9-7.5c-1.2-0.9-2.6-1.2-3.9-1.1
	c-1.4,0.1-2.7,0.8-3.6,2l-8.1,10.4L33,34.9H25.5z M25.5,16.1c4.2,0,7.5,3.3,7.5,7.5s-3.3,7.5-7.5,7.5S18,27.8,18,23.6
	S21.3,16.1,25.5,16.1z M57.6,23.7c0.4-0.1,0.9,0,1.2,0.3c0.6,0.4,0.7,1.5,0.2,2.2c0,0,0,0,0,0.1l-9.4,12.2c0,0,0,0,0,0.1
	c-0.2,0.3-1.1,0.9-2.1,1.2c0,0-0.1,0-0.1,0.1L38,43.1c-0.8,0.3-1.3,1-1.2,1.8v18.4c-4.3,0.9-7.5,4.7-7.5,9.2c0,2.9,1.3,5.4,3.4,7.1
	c-2.1,1.1-4,2.9-5.2,4.9c-1.3-2.1-3.1-3.8-5.2-4.9c2-1.7,3.4-4.3,3.4-7.1c0-5.2-4.2-9.4-9.4-9.4V43.8c0-2.6,0.8-3.6,1.7-4.2
	c0.9-0.6,2.3-0.8,3.4-0.8H33c0.1,0,0.3,0,0.4-0.1L47,35.8c0.4-0.1,0.8-0.3,1.1-0.6l8.5-11C56.8,23.9,57.2,23.7,57.6,23.7z M16.1,67
	c3.1,0,5.7,2.5,5.7,5.7c0,3.1-2.5,5.7-5.7,5.7s-5.7-2.5-5.7-5.7c0-2.5,1.6-4.7,3.9-5.4c0.1,0,0.2,0,0.4-0.1c0.1,0,0.2,0,0.2-0.1
	C15.3,67,15.7,67,16.1,67z M61.3,67c3.1,0,5.7,2.5,5.7,5.7c0,3.1-2.5,5.7-5.7,5.7c-3.1,0-5.7-2.5-5.7-5.7C55.7,69.5,58.2,67,61.3,67
	z M83.9,67c3.1,0,5.7,2.5,5.7,5.7c0,3.1-2.5,5.7-5.7,5.7c-3.1,0-5.7-2.5-5.7-5.7C78.3,69.5,80.8,67,83.9,67z M38.2,67
	C38.2,67,38.3,67,38.2,67c0.3,0.1,0.6,0.1,0.8,0c0,0,0,0,0.1,0c2.9,0.2,5.2,2.6,5.2,5.6c0,3.1-2.5,5.7-5.7,5.7
	c-3.1,0-5.7-2.5-5.7-5.7C33,69.6,35.3,67.3,38.2,67z M16.1,82c5.2,0,9.4,4.2,9.4,9.4v1.9H6.7v-1.9C6.7,86.3,10.9,82,16.1,82z
	 M38.7,82c5.2,0,9.4,4.2,9.4,9.4v1.9H29.3v-1.9C29.3,86.3,33.5,82,38.7,82z M61.3,82c5.2,0,9.4,4.2,9.4,9.4v1.9H51.9v-1.9
	C51.9,86.3,56.1,82,61.3,82z M83.9,82c5.2,0,9.4,4.2,9.4,9.4v1.9H74.5v-1.9C74.5,86.3,78.7,82,83.9,82z"/>
</svg>
