<svg width="479" height="45" viewBox="0 0 479 45" fill="none" xmlns="http://www.w3.org/2000/svg">
<path d="M5.28516 23.306H24.2177V42.3135H5.28516V23.306Z" fill="#0032A0"/>
<path d="M26.4922 2.01495H45.4247V21.0224H26.4922V2.01495Z" fill="#0032A0"/>
<path d="M26.4922 23.306H45.4247V42.3135H26.4922V23.306Z" fill="#0032A0"/>
<path d="M9.63362 2.37622L10.7709 5.33142L13.9821 5.5329L11.5068 7.54783L12.3096 10.6374L9.63362 8.89111L6.95764 10.6374L7.76044 7.54783L5.28516 5.5329L8.49633 5.33142L9.63362 2.37622Z" fill="#0032A0"/>
<path d="M19.9364 2.37622L21.0736 5.33142L24.2179 5.5329L21.8095 7.54783L22.6123 10.6374L19.9364 8.89111L17.2604 10.6374L18.0632 7.54783L15.5879 5.5329L18.7322 5.33142L19.9364 2.37622Z" fill="#0032A0"/>
<path d="M9.63362 12.518L10.7709 15.4732L13.9821 15.6747L11.5068 17.6897L12.3096 20.7792L9.63362 19.1001L6.95764 20.7792L7.76044 17.6897L5.28516 15.6747L8.49633 15.4732L9.63362 12.518Z" fill="#0032A0"/>
<path d="M19.9364 12.518L21.0736 15.4732L24.2179 15.6747L21.8095 17.6897L22.6123 20.7792L19.9364 19.1001L17.2604 20.7792L18.0632 17.6897L15.5879 15.6747L18.7322 15.4732L19.9364 12.518Z" fill="#0032A0"/>
<path d="M82.1525 11.0821L81.9518 8.93284H84.0926V18.2687H82.6208C82.3532 15.7836 81.4835 13.8358 80.0117 12.4254C78.5399 11.0149 76.5998 10.3433 74.3253 10.3433C72.4521 10.3433 70.7127 10.8806 69.1071 11.9552C67.5684 13.0299 66.2973 14.5075 65.4276 16.5224C64.491 18.4702 64.0896 20.7537 64.0896 23.306C64.0896 25.7911 64.5579 28.0075 65.5614 29.9552C66.498 31.903 67.836 33.4478 69.4416 34.5224C71.0472 35.597 72.8535 36.1343 74.8605 36.1343C76.6667 36.1343 78.4061 35.7314 80.0117 34.9254C81.6842 34.1194 83.0222 32.9776 84.0926 31.5L85.163 32.3731C83.6243 34.5224 81.818 36.0672 79.811 36.9403C77.804 37.8134 75.797 38.2836 73.7901 38.2836C71.181 38.2836 68.8395 37.6791 66.7656 36.403C64.6917 35.1269 63.0862 33.4478 61.882 31.2314C60.7447 29.0821 60.1426 26.6642 60.1426 23.9776C60.1426 21.3582 60.6778 18.8731 61.7482 16.5896C62.8186 14.306 64.3572 12.4254 66.498 10.9478C68.5719 9.53732 71.1141 8.79852 74.1246 8.79852C77.0012 8.59702 79.6772 9.47016 82.1525 11.0821Z" fill="#0032A0"/>
<path d="M109.581 10.8135C111.722 12.2911 113.328 14.1045 114.398 16.3881C115.468 18.6717 116.004 20.9553 116.004 23.3732C116.004 25.7239 115.468 28.0747 114.398 30.3582C113.328 32.6418 111.789 34.5224 109.648 35.9329C107.574 37.4105 104.965 38.1493 102.022 38.1493C98.8104 38.1493 96.1344 37.4105 93.9936 36C91.8528 34.5896 90.2472 32.7762 89.2438 30.4926C88.2403 28.2762 87.7051 25.8582 87.7051 23.3732C87.7051 20.9553 88.2403 18.6717 89.3107 16.3881C90.3811 14.1045 91.9197 12.2911 94.0605 10.8135C96.1344 9.33585 98.6766 8.59705 101.687 8.59705C104.831 8.59705 107.44 9.33585 109.581 10.8135ZM96.2682 12.0224C94.7964 13.2314 93.6591 14.7761 92.8563 16.6567C92.1204 18.5373 91.719 20.5523 91.719 22.6344C91.719 24.7836 92.1204 26.8657 92.8563 29.015C93.6591 31.1642 94.7964 32.9105 96.402 34.3209C98.0076 35.7314 99.8808 36.403 102.155 36.403C104.229 36.403 106.036 35.7985 107.507 34.5896C108.979 33.3806 110.116 31.8358 110.852 29.9553C111.588 28.0747 111.99 26.1269 111.99 24.0448C111.99 21.7612 111.588 19.5448 110.718 17.3956C109.916 15.2463 108.711 13.5 107.106 12.1567C105.5 10.8135 103.694 10.1418 101.553 10.1418C99.5463 10.209 97.74 10.8135 96.2682 12.0224Z" fill="#0032A0"/>
<path d="M127.712 10.612C126.775 10.612 126.106 10.8806 125.705 11.2836C125.303 11.6866 125.103 12.1567 125.036 12.694C124.969 13.2314 124.969 14.1717 124.969 15.5821V32.8433C124.969 34.2538 124.902 35.2612 124.835 36L132.328 35.8657C134.067 35.8657 135.338 35.3284 136.208 34.2538C137.078 33.1791 137.479 31.5 137.479 29.1493H138.817L138.549 37.4776H118.613V36.1343C119.55 36.1343 120.219 35.8657 120.62 35.4627C121.022 35.0597 121.222 34.5896 121.289 34.0523C121.356 33.5149 121.356 32.5746 121.356 31.1642V13.7687C121.356 12.6269 121.423 11.6866 121.49 10.8806L118.613 11.0149V9.26868H127.645V10.612H127.712Z" fill="#0032A0"/>
<path d="M150.859 10.612C149.922 10.612 149.253 10.8806 148.852 11.2836C148.45 11.6866 148.249 12.1567 148.183 12.694C148.116 13.2314 148.116 14.1717 148.116 15.5821V32.8433C148.116 34.2538 148.049 35.2612 147.982 36L155.475 35.8657C157.214 35.8657 158.485 35.3284 159.355 34.2538C160.225 33.1791 160.626 31.5 160.626 29.1493H161.964L161.696 37.4776H141.827V36.1343C142.764 36.1343 143.433 35.8657 143.834 35.4627C144.236 35.0597 144.436 34.5896 144.503 34.0523C144.57 33.5149 144.57 32.5746 144.57 31.1642V13.7687C144.57 12.6269 144.637 11.6866 144.704 10.8806L141.827 11.0149V9.26868H150.859V10.612Z" fill="#0032A0"/>
<path d="M184.575 16.3209H183.237C183.237 14.1045 182.769 12.6269 181.832 11.8209C180.896 11.0149 179.558 10.612 177.818 10.6791L174.34 10.7463C173.403 10.7463 172.667 10.9478 172.266 11.2836C171.864 11.6194 171.597 12.0896 171.463 12.694C171.329 13.2985 171.329 14.2388 171.329 15.5149V21.9627L178.889 22.0299L178.621 18.5373H180.361V27H179.023C179.023 25.9926 178.889 25.2537 178.688 24.7164C178.42 24.1791 178.086 23.8433 177.618 23.6418C177.149 23.4403 176.413 23.3732 175.544 23.3732L174.273 23.4403L171.329 23.5746V32.7761C171.329 34.1866 171.262 35.194 171.195 35.9329L178.889 35.7985C180.762 35.7985 182.167 35.2612 183.17 34.3881C184.174 33.4478 184.642 31.8358 184.642 29.5523H185.98L185.712 37.4105H164.974V36.0672C165.91 36.0672 166.579 35.7985 166.981 35.3955C167.382 34.9926 167.583 34.5224 167.65 33.9851C167.717 33.4478 167.717 32.5075 167.717 31.097V13.7687C167.717 12.6269 167.783 11.6866 167.85 10.8806L164.974 11.0149V9.26868H184.308L184.575 16.3209Z" fill="#0032A0"/>
<path d="M208.058 9.20153C209.529 9.60452 210.867 10.1418 212.005 10.8135L211.871 8.86571H214.078V18.1344H212.607C212.406 15.6493 211.536 13.7015 209.931 12.3582C208.325 10.9478 206.318 10.2762 203.977 10.2762C202.103 10.2762 200.364 10.8135 198.758 11.9553C197.22 13.0299 195.949 14.5747 195.012 16.5224C194.076 18.4702 193.607 20.6866 193.607 23.1045C193.607 25.6568 194.076 27.8732 194.945 29.8881C195.882 31.903 197.153 33.4478 198.758 34.5896C200.364 35.7314 202.237 36.2687 204.311 36.2687C205.448 36.2687 206.653 36.1344 207.857 35.7314C209.061 35.3956 210.198 34.9254 211.202 34.2538V25.3209L208.392 25.4553V23.709H217.49V25.0523C216.219 25.0523 215.416 25.5224 215.082 26.5299C214.747 27.5374 214.614 28.612 214.614 29.8881V36.0672H213.543C212.406 36.0672 211.001 36.403 209.195 37.1418C208.392 37.4777 207.455 37.7463 206.318 37.8806C205.248 38.0821 204.244 38.1493 203.308 38.1493C200.632 38.1493 198.29 37.5448 196.216 36.4702C194.142 35.3284 192.537 33.7165 191.4 31.5672C190.262 29.4179 189.66 26.9329 189.66 24.0448C189.66 21.4254 190.195 18.9403 191.266 16.5896C192.336 14.2388 193.875 12.3582 196.016 10.8806C198.156 9.40302 200.699 8.66422 203.642 8.66422C205.114 8.59705 206.586 8.79855 208.058 9.20153Z" fill="#0032A0"/>
<path d="M240.103 16.3209H238.765C238.765 14.1045 238.296 12.6269 237.36 11.8209C236.423 11.0149 235.085 10.612 233.346 10.6791L229.867 10.7463C228.93 10.7463 228.194 10.9478 227.793 11.2836C227.392 11.6194 227.124 12.0896 226.99 12.694C226.856 13.2985 226.856 14.2388 226.856 15.5149V21.9627L234.416 22.0299L234.148 18.5373H235.888V27H234.55C234.55 25.9926 234.416 25.2537 234.215 24.7164C233.948 24.1791 233.613 23.8433 233.145 23.6418C232.677 23.4403 231.941 23.3732 231.071 23.3732L229.8 23.4403L226.856 23.5746V32.7761C226.856 34.1866 226.79 35.194 226.723 35.9329L234.416 35.7985C236.289 35.7985 237.694 35.2612 238.698 34.3881C239.701 33.4478 240.169 31.8358 240.169 29.5523H241.507L241.24 37.4105H220.501V36.0672C221.438 36.0672 222.107 35.7985 222.508 35.3955C222.909 34.9926 223.11 34.5224 223.177 33.9851C223.244 33.4478 223.244 32.5075 223.244 31.097V13.7687C223.244 12.6269 223.311 11.6866 223.378 10.8806L220.501 11.0149V9.26868H239.835L240.103 16.3209Z" fill="#0032A0"/>
<path d="M316.434 31.4329C316.702 32.1717 316.969 32.9105 317.17 33.7836C317.371 34.6567 317.505 35.3284 317.438 35.8657L320.181 35.7314V37.4776H311.015V36.1344C312.621 36.1344 313.357 35.4627 313.357 34.1866C313.357 33.6493 313.223 33.0448 312.955 32.306L311.551 28.5448L301.114 28.8135C300.713 29.8881 300.245 31.3657 299.709 33.112C299.442 33.9851 299.107 34.9254 298.706 35.8657L301.85 35.7314V37.4776H294.357V36.1344C295.026 36.1344 295.562 36 295.963 35.6642C296.364 35.3284 296.699 34.9254 296.966 34.4552C297.234 33.9851 297.502 33.2463 297.903 32.2388L298.304 31.097L306.6 8.46271H307.537L316.434 31.4329ZM306.266 14.3732L304.593 18.9403L302.452 25.0523L301.783 27H311.082L308.206 19.2761L306.399 14.306H306.266V14.3732Z" fill="#0032A0"/>
<path d="M355.503 10.612C354.567 10.612 353.831 10.8806 353.363 11.418C352.894 11.9553 352.694 12.8956 352.694 14.2389L352.76 15.0448L353.831 33.3806C353.898 33.9851 353.898 34.8583 353.898 35.8657L356.841 35.7314V37.4777H347.877V36.1344C348.947 36.1344 349.616 35.7986 350.018 35.1941C350.419 34.5896 350.553 33.7165 350.553 32.5075C350.553 31.9702 350.553 31.6344 350.486 31.3657L349.416 14.1717C349.349 14.306 349.282 14.5075 349.215 14.709C349.148 14.9105 349.014 15.1792 348.88 15.4478L339.849 37.8806H338.645L336.37 32.8433C334.363 28.2762 332.758 24.7165 331.62 22.0971C330.483 19.4777 329.413 16.7239 328.342 13.8359L328.275 15.5821C328.008 23.4403 327.874 29.0821 327.807 32.4403C327.807 32.8433 327.807 33.112 327.74 33.3135C327.74 34.2538 327.673 35.0597 327.606 35.8657L330.617 35.7314V37.4777H323.124V36.1344C324.261 36.1344 324.997 35.7986 325.332 35.1941C325.666 34.5896 325.867 33.6493 325.934 32.4403L326.803 10.8806L323.927 11.015V9.2687H330.082L335.567 21.8956C337.574 26.5971 339.046 30.0896 340.116 32.5075H340.183C340.518 31.7015 341.187 29.9553 342.257 27.3359C343.261 24.7836 344.465 21.8956 345.736 18.806C347.275 15.1792 348.546 12.0224 349.683 9.20154H355.637V10.612H355.503Z" fill="#0032A0"/>
<path d="M379.52 16.3209H378.182C378.182 14.1045 377.714 12.6269 376.778 11.8209C375.841 11.0149 374.503 10.612 372.764 10.6791L369.285 10.7463C368.348 10.7463 367.612 10.9478 367.211 11.2836C366.81 11.6194 366.542 12.0896 366.408 12.694C366.274 13.2985 366.274 14.2388 366.274 15.5149V21.9627L373.834 22.0299L373.566 18.5373H375.306V27H373.968C373.968 25.9926 373.834 25.2537 373.633 24.7164C373.366 24.1791 373.031 23.8433 372.563 23.6418C372.095 23.4403 371.359 23.3732 370.489 23.3732L369.218 23.4403L366.274 23.5746V32.7761C366.274 34.1866 366.207 35.194 366.141 35.9329L373.834 35.7985C375.707 35.7985 377.112 35.2612 378.116 34.3881C379.119 33.4478 379.587 31.8358 379.587 29.5523H380.925L380.658 37.4105H359.919V36.0672C360.856 36.0672 361.525 35.7985 361.926 35.3955C362.327 34.9926 362.528 34.5224 362.595 33.9851C362.662 33.4478 362.662 32.5075 362.662 31.097V13.7687C362.662 12.6269 362.729 11.6866 362.796 10.8806L359.919 11.0149V9.26868H379.32L379.52 16.3209Z" fill="#0032A0"/>
<path d="M402.4 11.1493C404.14 12.3583 405.009 14.1717 405.009 16.4553C405.009 18.3359 404.474 19.9478 403.337 21.4254C402.2 22.903 400.259 23.9105 397.45 24.515C397.918 24.8508 398.319 25.2538 398.721 25.7911C399.122 26.2612 399.59 27 400.259 28.0747L403.002 32.3732C403.604 33.3135 404.073 34.0523 404.474 34.5224C404.875 34.9926 405.344 35.3956 405.879 35.7314C406.414 36.0672 407.083 36.2015 407.886 36.2015V37.5448H402.802C402.066 36.9403 401.464 36.2687 400.995 35.5971C400.527 34.9254 399.925 34.1194 399.256 33.0448L396.58 28.7463L396.045 27.8732C395.643 27.1344 395.242 26.5299 394.907 26.1269C394.573 25.6568 394.238 25.2538 393.837 24.918C393.569 24.918 393.235 24.9851 392.7 24.9851C391.964 24.9851 391.429 24.9851 391.094 24.918V32.709C391.094 34.1194 391.027 35.1941 390.96 35.8657L393.837 35.7314V37.4777H384.806V36.1344C385.742 36.1344 386.411 35.8657 386.813 35.4627C387.214 35.0597 387.415 34.5896 387.482 34.0523C387.549 33.515 387.549 32.5747 387.549 31.1642V13.7687C387.549 12.6269 387.615 11.6866 387.682 10.8806L384.806 11.015V9.2687C387.615 9.20154 389.689 9.20154 391.094 9.20154C392.365 9.20154 393.369 9.20154 393.971 9.2687C397.918 9.2687 400.661 9.94034 402.4 11.1493ZM391.964 11.3508C391.563 11.7538 391.362 12.1568 391.295 12.6941C391.228 13.2314 391.228 14.1717 391.228 15.5821V23.306C392.031 23.3732 392.633 23.3732 392.967 23.3732C398.453 23.3732 401.129 21.2239 401.129 16.8583C401.129 14.8433 400.527 13.2986 399.39 12.2911C398.186 11.2836 396.379 10.7463 393.971 10.7463C393.034 10.7463 392.365 10.9478 391.964 11.3508Z" fill="#0032A0"/>
<path d="M420.196 10.612C419.259 10.612 418.59 10.8806 418.189 11.2836C417.787 11.6866 417.586 12.1567 417.52 12.694C417.453 13.2314 417.453 14.1717 417.453 15.5821V32.709C417.453 34.1194 417.386 35.194 417.319 35.8657L420.196 35.7314V37.4776H411.164V36.1343C412.101 36.1343 412.77 35.8657 413.171 35.4627C413.572 35.0597 413.773 34.5896 413.84 34.0523C413.907 33.5149 413.907 32.5746 413.907 31.1642V13.7687C413.907 12.6269 413.974 11.6866 414.041 10.8806L411.164 11.0149V9.26868H420.196V10.612Z" fill="#0032A0"/>
<path d="M445.149 11.0821L444.948 8.93284H447.089V18.2687H445.617C445.35 15.7836 444.48 13.8358 443.008 12.4254C441.536 11.0149 439.596 10.3433 437.322 10.3433C435.449 10.3433 433.709 10.8806 432.104 11.9552C430.565 13.0299 429.294 14.5075 428.357 16.5224C427.421 18.4702 427.019 20.7537 427.019 23.306C427.019 25.7911 427.488 28.0075 428.491 29.9552C429.428 31.903 430.766 33.4478 432.371 34.5224C433.977 35.597 435.783 36.1343 437.79 36.1343C439.596 36.1343 441.336 35.7314 442.941 34.9254C444.614 34.1194 445.952 32.9776 447.022 31.5L448.093 32.3731C446.554 34.5224 444.748 36.0672 442.741 36.9403C440.734 37.8134 438.727 38.2836 436.72 38.2836C434.111 38.2836 431.769 37.6791 429.695 36.403C427.621 35.1269 426.016 33.4478 424.812 31.2314C423.674 29.0821 423.072 26.6642 423.072 23.9776C423.072 21.3582 423.607 18.8731 424.678 16.5896C425.748 14.306 427.287 12.4254 429.428 10.9478C431.502 9.53732 434.044 8.79852 437.054 8.79852C439.931 8.59702 442.674 9.47016 445.149 11.0821Z" fill="#0032A0"/>
<path d="M470.705 31.4329C470.972 32.1717 471.24 32.9105 471.441 33.7836C471.641 34.6567 471.775 35.3284 471.708 35.8657L474.451 35.7314V37.4776H465.286V36.1344C466.891 36.1344 467.627 35.4627 467.627 34.1866C467.627 33.6493 467.494 33.0448 467.226 32.306L465.821 28.5448L455.385 28.8135C454.983 29.8881 454.515 31.3657 453.98 33.112C453.712 33.9851 453.378 34.9254 452.976 35.8657L456.121 35.7314V37.4776H448.628V36.1344C449.297 36.1344 449.832 36 450.234 35.6642C450.635 35.3284 450.969 34.9254 451.237 34.4552C451.505 33.9851 451.772 33.2463 452.174 32.2388L452.575 31.097L460.871 8.46271H461.807L470.705 31.4329ZM460.536 14.3732L458.864 18.9403L456.723 25.0523L456.054 27H465.353L462.476 19.2761L460.67 14.306H460.536V14.3732Z" fill="#0032A0"/>
<path d="M268.133 16.9254C268.935 17.3955 269.537 18.0672 270.006 19.0075C270.474 19.9478 270.675 21.0224 270.675 22.2314C270.675 23.7761 270.407 25.1194 269.872 26.3955C269.337 27.6717 268.534 28.6791 267.53 29.4179C266.527 30.1567 265.323 30.5597 263.918 30.5597C262.178 30.5597 260.84 29.9552 259.971 28.8135C259.101 27.6717 258.633 26.194 258.633 24.3806C258.633 22.903 258.9 21.4926 259.436 20.2164C259.971 18.9403 260.774 18 261.777 17.2612C262.781 16.5224 263.985 16.1866 265.39 16.1866C266.46 16.1866 267.33 16.4552 268.133 16.9254ZM262.914 18.0672C262.312 18.6717 261.844 19.4105 261.576 20.4179C261.242 21.4254 261.108 22.5672 261.108 23.7761C261.108 25.3209 261.376 26.6642 261.844 27.806C262.312 28.9478 263.115 29.5523 264.252 29.5523C265.189 29.5523 265.925 29.2164 266.527 28.4776C267.129 27.7388 267.53 26.8657 267.865 25.7911C268.199 24.7164 268.266 23.709 268.266 22.7015C268.266 21.1567 267.999 19.8135 267.53 18.7388C267.062 17.6642 266.192 17.1269 264.988 17.1269C264.185 17.194 263.516 17.5299 262.914 18.0672Z" fill="#0032A0"/>
<path d="M281.781 9.67165C282.115 9.94031 282.316 10.2761 282.316 10.7463C282.316 11.0149 282.249 11.2836 282.048 11.4851C281.848 11.7537 281.58 11.8209 281.246 11.8209C280.911 11.8209 280.577 11.6866 280.376 11.4179C280.175 11.1493 280.041 10.8134 280.108 10.4105C279.975 10.3433 279.774 10.2761 279.506 10.2761C278.637 10.2761 278.034 10.8134 277.633 11.8209C277.232 12.8284 276.964 14.3731 276.83 16.3881H280.71L280.643 17.4627L276.763 17.5299L276.696 19.0746C276.563 21.2239 276.496 22.7687 276.362 23.709L276.228 25.6567C276.027 28.3433 275.76 30.4925 275.425 32.1045C275.158 33.6493 274.556 34.9925 273.753 36.0672C272.95 37.1418 271.746 37.6791 270.207 37.6791C269.538 37.6791 269.003 37.5448 268.602 37.3433C268.267 37.0746 268.066 36.7388 268.066 36.2687C268.066 36 268.133 35.7314 268.334 35.5299C268.535 35.2612 268.802 35.1269 269.137 35.1269C269.471 35.1269 269.739 35.2612 269.94 35.4627C270.14 35.6642 270.274 36 270.274 36.403C270.475 36.5373 270.742 36.6045 271.077 36.6045C271.746 36.6045 272.214 36.2687 272.616 35.5299C272.95 34.7911 273.218 33.8508 273.351 32.709C273.485 31.5672 273.686 29.8209 273.82 27.5373C273.954 25.7239 274.02 24.3134 274.154 23.4403L274.288 21.4254C274.355 20.0149 274.489 18.7388 274.623 17.5299H272.214L272.348 16.3209H274.756C275.091 14.0373 275.693 12.2911 276.496 11.0149C277.299 9.73882 278.637 9.13434 280.376 9.13434C280.978 9.33583 281.446 9.47016 281.781 9.67165Z" fill="#0032A0"/>
</svg>
