<?xml version="1.0" encoding="utf-8"?>
<!-- Generator: Adobe Illustrator 25.0.0, SVG Export Plug-In . SVG Version: 6.00 Build 0)  -->
<svg version="1.1" id="Layer_1" xmlns="http://www.w3.org/2000/svg" xmlns:xlink="http://www.w3.org/1999/xlink" x="0px" y="0px"
	 viewBox="0 0 100 100" style="enable-background:new 0 0 100 100;" xml:space="preserve">
<style type="text/css">
	.st0{fill:#0032A0;}
</style>
<path class="st0" d="M87.5,4.4h-75c-2.7,0-5.3,1-7.2,2.9c-1.9,1.8-3,4.3-3,6.9v71.6c0,2.6,1.1,5.1,3,6.9s4.5,2.9,7.2,2.9h29.3v-31
	H28.3V50h13.4V38.9c0-12.6,7.9-19.6,20-19.6c5.8,0,11.8,1,11.8,1v12.4h-6.7c-6.6,0-8.6,3.9-8.6,7.9V50h14.7l-2.3,14.6H58.3v31h29.3
	c2.7,0,5.3-1,7.2-2.9c1.9-1.8,3-4.3,3-6.9V14.2c0-2.6-1.1-5.1-3-6.9C92.8,5.5,90.2,4.4,87.5,4.4z"/>
</svg>
