<?xml version="1.0" encoding="utf-8"?>
<!-- Generator: Adobe Illustrator 25.0.0, SVG Export Plug-In . SVG Version: 6.00 Build 0)  -->
<svg version="1.1" id="Layer_1" xmlns="http://www.w3.org/2000/svg" xmlns:xlink="http://www.w3.org/1999/xlink" x="0px" y="0px"
	 viewBox="0 0 100 100" style="enable-background:new 0 0 100 100;" xml:space="preserve">
<style type="text/css">
	.st0{fill:#1E1B1C;}
</style>
<path class="st0" d="M49,12.4c-3.3,0-5.8,2.9-6.1,6.2c-0.2,2.7-1.9,12.2-2,12.4l-3.8,11c-0.1,0.1-0.2,0.2-0.3,0.2v-2.1
	c0-1.2-0.9-2.1-2-2.1L1.4,88.5h4.4l26.9-40.8v11.5L17.5,88.5h4.9l12.4-25c1.1,0,2-0.9,2-2.1v-2.1h5.9c3.3,0,6.4-1.7,8.3-4.3
	c1.9,2.6,4.9,4.3,8.3,4.3h5.9v2.1c0,1.2,0.9,2.1,2,2.1l11.3,25h4.4L69.3,59.3V47.8l24.6,40.8h4.4L67.2,38c-1.1,0-2,0.9-2,2.1
	c-0.1,0-0.2-0.1-0.3-0.2l-3.8-9c-0.1-0.4-1.7-9.6-2-12.3c-0.3-3.3-2.7-6.2-6.1-6.2c-0.7,0-1.4,0.2-2,0.5
	C50.3,12.6,49.7,12.4,49,12.4z M48.9,16.7c0,0.3,0.1,1,0.1,2v30.8c-0.6,3.2-3.2,5.5-6.2,5.5h-5.9v-8.5c1.6,0,3.1-0.9,3.9-2.4
	l0.1-0.2l4.1-11.8l0-0.2c0,0,1.8-9.3,2.1-13C47,17.6,47.8,16.8,48.9,16.7z M53.1,16.7c1.1,0.1,1.9,0.9,2,2.2c0.3,3.7,2.1,13,2.1,13
	l0,0.2l4.1,9.7l0,0.1c0.8,1.4,2.3,2.4,3.9,2.4V55h-5.9c-3.1,0-5.7-2.3-6.2-5.5V18.8C53,17.7,53,17.1,53.1,16.7z"/>
</svg>
