<?xml version="1.0" encoding="utf-8"?>
<!-- Generator: Adobe Illustrator 25.0.0, SVG Export Plug-In . SVG Version: 6.00 Build 0)  -->
<svg version="1.1" id="Layer_1" xmlns="http://www.w3.org/2000/svg" xmlns:xlink="http://www.w3.org/1999/xlink" x="0px" y="0px"
	 viewBox="0 0 100 100" style="enable-background:new 0 0 100 100;" xml:space="preserve">
<style type="text/css">
	.st0{fill:#0032A0;}
</style>
<path class="st0" d="M90.9,4.5H9.1c-3.7,0-6.8,2.9-6.8,6.6V89c0,3.6,3,6.6,6.8,6.6h81.8c3.7,0,6.8-2.9,6.8-6.6V11
	C97.7,7.4,94.6,4.5,90.9,4.5z M31.1,82.5H17V39.1h14.2L31.1,82.5L31.1,82.5z M24.1,33.1c-4.5,0-8.2-3.5-8.2-7.8s3.7-7.8,8.2-7.8
	s8.2,3.5,8.2,7.8S28.6,33.1,24.1,33.1z M84.1,82.5H70V61.4c0-5-0.1-11.5-7.3-11.5c-7.4,0-8.5,5.5-8.5,11.2v21.5H40V39.1h13.6V45h0.2
	c1.9-3.4,6.5-7,13.4-7c14.3,0,17,9,17,20.7L84.1,82.5L84.1,82.5z"/>
</svg>
