<?xml version="1.0" encoding="utf-8"?>
<!-- Generator: Adobe Illustrator 25.0.0, SVG Export Plug-In . SVG Version: 6.00 Build 0)  -->
<svg version="1.1" id="Layer_1" xmlns="http://www.w3.org/2000/svg" xmlns:xlink="http://www.w3.org/1999/xlink" x="0px" y="0px"
	 viewBox="0 0 100 100" style="enable-background:new 0 0 100 100;" xml:space="preserve">
<style type="text/css">
	.st0{fill:#FFFFFF;}
</style>
<path class="st0" d="M44.3,2.6l-3.1,2l1.2,1.9c-1.5,1.8-1.7,4.6-0.3,6.6c0.9,1.4,2.5,2.2,3.7,2.1c1.3-0.1,2.3-0.6,3.1-1
	c0.9-0.4,1.6-0.6,1.9-0.7c0.3,0,0.1-0.2,0.4,0.3l0,0l0,0c0.6,0.9,0.3,2-0.6,2.5l-0.1,0.1l-0.1,0.1c-0.8,0.6-1.9,0.3-2.4-0.6
	l-3.3,1.8c1.2,2.2,3.7,3.2,6,2.7l1.1,1.9l3.1-2L54,18.5c1.5-1.8,1.7-4.6,0.3-6.6c-0.9-1.4-2.5-2.2-3.7-2.1c-1.3,0.1-2.3,0.6-3.1,1
	c-0.9,0.4-1.6,0.6-1.9,0.7c-0.3,0-0.1,0.2-0.4-0.3l0,0l0,0c-0.6-0.9-0.3-2,0.6-2.5l0.1-0.1L46,8.5c0.8-0.6,1.9-0.3,2.4,0.6l3.3-1.8
	c-1.2-2.3-3.7-3.2-6-2.7L44.3,2.6z M43.8,5.2L43.8,5.2c-0.1,0.1-0.2,0.1-0.2,0.1L43.8,5.2z M22.5,9.5L21,11.1
	c-2.1-1.1-4.7-0.7-6.4,1.2c-1.1,1.2-1.5,3-1.1,4.2c0.4,1.3,1.1,2.2,1.6,2.9c0.6,0.8,1,1.4,1,1.7s0.2,0.1-0.2,0.5l0,0l0,0
	c-0.7,0.8-1.8,0.8-2.5,0l-0.1-0.1l-0.1-0.1c-0.8-0.7-0.8-1.8,0-2.5L10.7,16c-1.9,1.7-2.2,4.4-1.2,6.6L8,24.2l2.6,2.7l1.5-1.6
	c2.1,1.1,4.7,0.7,6.4-1.2c1.1-1.2,1.5-3,1.1-4.2c-0.4-1.3-1.1-2.2-1.6-2.9c-0.6-0.8-1-1.4-1-1.7c-0.1-0.3-0.2-0.1,0.2-0.5l0,0l0,0
	c0.7-0.8,1.8-0.8,2.5,0l0.1,0.1L20,15c0.8,0.7,0.8,1.8,0,2.5l2.5,2.9c1.9-1.7,2.2-4.4,1.2-6.6l1.5-1.6L22.5,9.5z M77.5,9.5l-2.6,2.7
	l1.5,1.6c-1,2.1-0.7,4.8,1.1,6.5c1.2,1.2,2.9,1.5,4.1,1.2c1.2-0.4,2.1-1.1,2.9-1.7s1.4-1,1.7-1.1c0.3-0.1,0.1-0.2,0.5,0.2l0,0l0,0
	c0.8,0.7,0.8,1.8,0,2.5l-0.1,0.1l-0.1,0.1c-0.7,0.8-1.8,0.8-2.5,0l-2.8,2.5c1.7,1.9,4.3,2.3,6.4,1.2l1.5,1.6l2.6-2.7l-1.5-1.6
	c1-2.1,0.7-4.8-1.1-6.5C87.9,15,86.2,14.6,85,15s-2.1,1.1-2.9,1.7s-1.4,1-1.7,1.1c-0.3,0.1-0.1,0.2-0.5-0.2l0,0l0,0
	c-0.8-0.7-0.8-1.8,0-2.5L80,15l0.1-0.1c0.7-0.8,1.8-0.8,2.5,0l2.8-2.5c-1.7-1.9-4.3-2.3-6.4-1.2L77.5,9.5z M22.4,12.1l0.2,0.2
	C22.6,12.2,22.5,12.2,22.4,12.1C22.5,12.2,22.5,12.1,22.4,12.1z M77.6,12.1C77.5,12.1,77.5,12.2,77.6,12.1c-0.1,0.1-0.1,0.1-0.2,0.2
	L77.6,12.1z M52.7,19.7l-0.2,0.1c0,0,0-0.1,0.1-0.1C52.6,19.8,52.6,19.8,52.7,19.7z M10.6,24.2C10.7,24.3,10.7,24.3,10.6,24.2
	c0.1,0.1,0.1,0.1,0.2,0.2L10.6,24.2z M89.4,24.2l-0.2,0.2C89.2,24.4,89.2,24.3,89.4,24.2C89.3,24.3,89.3,24.3,89.4,24.2z M49.1,24.9
	c-2.9,0-5.4,1.2-7,3s-2.3,4.2-2.3,6.5c0,2.3,0.7,4.7,2.3,6.5s4,3,7,3c2.9,0,5.4-1.2,7-3s2.3-4.2,2.3-6.5s-0.7-4.7-2.3-6.5
	C54.4,26.1,52,24.9,49.1,24.9z M27.5,26.8c-0.7,0-1.3,0.2-2,0.5c-1.2,0.5-2.3,1.5-2.9,2.9c-0.6,1.3-0.7,3.1,0,4.7l0,0l3.7,9.5
	c0,0,0,0,0,0.1c0.3,0.8,0.9,1.5,1.5,2.1l-0.1-0.1L38.9,58v18.4v14.3c0,2.1,0.8,3.9,2.1,5s2.8,1.7,4.4,1.7c1.6,0,3.2-0.5,4.4-1.7
	c0.1-0.1,0.1-0.2,0.2-0.3c0.1,0.1,0.1,0.2,0.2,0.3c1.3,1.1,2.8,1.7,4.4,1.7c1.6,0,3.2-0.5,4.4-1.7c1.3-1.1,2.1-2.9,2.1-5V76.4V56.3
	l9.3-10l-0.1,0.1c0.6-0.6,1.2-1.3,1.5-2.1c0,0,0,0,0-0.1l3.7-9.5l0,0c0.7-1.6,0.6-3.3,0-4.7c-0.6-1.3-1.7-2.3-2.9-2.9
	c-1.2-0.5-2.7-0.7-4-0.2c-1.4,0.5-2.6,1.6-3.3,3.2l0,0L62,38.7l-6.2,7.2H42.3l-6.2-7.2l-3.2-8.4l0,0c-0.7-1.6-1.9-2.7-3.3-3.2
	C28.9,26.8,28.2,26.8,27.5,26.8z M49.1,28.7c2,0,3.3,0.7,4.2,1.7s1.4,2.5,1.4,4s-0.5,2.9-1.4,4c-0.9,1-2.2,1.7-4.2,1.7
	s-3.3-0.7-4.2-1.7s-1.4-2.5-1.4-4s0.5-2.9,1.4-4C45.8,29.4,47.1,28.7,49.1,28.7z M27.7,30.6c0.2,0,0.5,0,0.7,0.1
	c0.4,0.1,0.7,0.4,1,1.1l0,0l3.3,8.7c0.1,0.2,0.2,0.4,0.3,0.6l7,8c0.2,0.2,0.4,0.4,0.6,0.5c0.2,0.1,0.5,0.2,0.8,0.2h15.2
	c0.3,0,0.5-0.1,0.8-0.2c0.2-0.1,0.5-0.3,0.6-0.5l7-8c0.1-0.2,0.3-0.4,0.3-0.6l3.3-8.7l0,0c0.3-0.7,0.6-1,1-1.1s0.9-0.1,1.4,0.1
	s0.9,0.6,1,1c0.2,0.4,0.2,0.8-0.1,1.5l0,0l-3.7,9.5c-0.1,0.3-0.3,0.5-0.5,0.7l-0.1,0.1l-9.8,10.6c-0.3,0.4-0.5,0.8-0.5,1.3v20.9
	v14.3c0,1.1-0.3,1.7-0.8,2.1s-1.2,0.7-2,0.7c-0.7,0-1.5-0.3-2-0.7c-0.5-0.4-0.8-1-0.8-2.1V74.5v-1.9c0-0.3,0-0.5-0.1-0.7
	s-0.2-0.5-0.4-0.6c-0.2-0.2-0.4-0.3-0.6-0.4c-0.2-0.1-0.5-0.1-0.7-0.1c-0.5,0-1,0.2-1.3,0.6s-0.5,0.8-0.5,1.4v1.9v16.2
	c0,1.1-0.3,1.7-0.8,2.1s-1.2,0.7-2,0.7c-0.7,0-1.5-0.3-2-0.7c-0.5-0.4-0.8-1-0.8-2.1V76.4V57.2c0-0.5-0.2-1-0.5-1.3L30.4,43.6
	l-0.1-0.1c-0.2-0.2-0.4-0.4-0.5-0.7L26,33.3l0,0c-0.3-0.7-0.2-1.1-0.1-1.5c0.2-0.4,0.6-0.8,1-1C27.2,30.7,27.5,30.6,27.7,30.6z"/>
</svg>
