<?xml version="1.0" encoding="utf-8"?>
<!-- Generator: Adobe Illustrator 25.0.0, SVG Export Plug-In . SVG Version: 6.00 Build 0)  -->
<svg version="1.1" id="Layer_1" xmlns="http://www.w3.org/2000/svg" xmlns:xlink="http://www.w3.org/1999/xlink" x="0px" y="0px"
	 viewBox="0 0 100 100" style="enable-background:new 0 0 100 100;" xml:space="preserve">
<style type="text/css">
	.st0{fill:#1E1B1C;}
</style>
<path class="st0" d="M4.3,2.8c-0.9,0.2-1.6,1-1.5,1.9v64.8c0,1,0.9,1.9,1.9,1.9h6L10.4,73c-0.1,0.5,0,1,0.3,1.4
	c0.3,0.4,0.8,0.7,1.3,0.8l5.8,1l-1.1,5.1c-0.2,1,0.4,2,1.4,2.3L81.3,98c1,0.2,2-0.4,2.3-1.4L98,33.5c0.2-1-0.4-2-1.4-2.3l-9.1-2.1
	l1.4-8.5c0.2-1-0.5-2-1.5-2.2l-16-2.7v-11c0-1-0.9-1.9-1.9-1.9H4.7c-0.1,0-0.1,0-0.2,0C4.4,2.8,4.4,2.8,4.3,2.8z M6.6,6.6h61v61h-61
	V6.6z M11.9,10.4c-0.9,0.2-1.6,1-1.5,1.9v43.8c0,1,0.9,1.9,1.9,1.9h49.6c1,0,1.9-0.9,1.9-1.9V12.3c0-1-0.9-1.9-1.9-1.9H12.3
	c-0.1,0-0.1,0-0.2,0C12.1,10.4,12,10.4,11.9,10.4z M14.2,14.2h45.7v40h-3.8c0-0.1,0-0.2,0-0.3c-0.2-2.4-1.2-4.4-2.6-5.8
	c-1.4-1.4-3-2.1-4.5-2.8c-1.5-0.7-3.1-1.2-4.1-1.7c-1-0.5-1.4-0.9-1.6-1.3c-0.1-0.8,0-1.6,0.1-2.5c0,0,0.1-0.1,0.1-0.1
	c0.3-0.4,0.6-0.8,0.8-1.3c0.4-0.7,0.6-1.7,0.8-2.6c0.3-0.2,0.6-0.2,0.8-0.4c0.6-0.7,0.8-1.7,0.9-2.8H47c0,0,0,0,0-0.1c0,0,0,0,0-0.1
	c0.1-1.1-0.2-2-0.7-2.7c0.4-1.5,0.9-3.4,0.8-5.7c-0.1-1.4-0.4-2.9-1.4-4.2c-0.8-1.1-2.2-1.9-3.9-2.3c-1.3-1.1-2.9-1.5-4.8-1.5
	c0,0,0,0-0.1,0c-4.5,0.1-7.6,2-8.9,5c-1.2,2.7-1,5.8-0.2,9c-0.4,0.7-0.7,1.5-0.7,2.4c0,0.1,0,0.1,0,0.2c0.1,1.3,0.5,2.3,1.1,3
	c0.2,0.2,0.5,0.2,0.7,0.4c0.2,0.9,0.5,1.9,0.8,2.6c0.2,0.5,0.7,0.8,1,1.2v2.8c-0.2,0.3-0.5,0.8-1.5,1.3c-1,0.5-2.5,1-4,1.7
	c-1.6,0.7-3.2,1.4-4.6,2.8c-1.4,1.4-2.4,3.4-2.6,5.8c0,0,0,0.1,0,0.1h-3.8V14.2z M71.4,19.5l13.5,2.4L74.5,82L14.4,71.7l0.1-0.3
	h54.7l1.4,0.2c1,0.1,2-0.5,2.1-1.5l7.4-43.3c0.1-0.5,0-1-0.3-1.4c-0.3-0.4-0.8-0.7-1.3-0.8l-7.1-1.1V19.5z M37.1,19.9
	C37.1,19.9,37.1,19.9,37.1,19.9c1.5,0,2.6,0.8,2.5,0.6c0.3,0.4,0.8,0.6,1.3,0.7c1.1,0.1,1.4,0.5,1.8,1c0.3,0.5,0.6,1.3,0.7,2.2
	c0.1,1.9-0.4,4.4-0.8,5.5c-0.3,0.8,0,1.7,0.7,2.1c0,0,0,0.1,0,0.1C43.1,32.7,43,32.9,43,33c-0.7,0.2-1.2,0.9-1.3,1.6
	c-0.1,0.6-0.4,1.4-0.7,2.1c-0.2,0.3-0.3,0.6-0.5,0.8c-0.1,0.1-0.1,0.2-0.2,0.2c-0.5,0.4-0.7,0.9-0.7,1.5c0,1.2-0.2,2.3,0,4
	c0,0.2,0.1,0.3,0.1,0.5c0.7,1.7,2.2,2.7,3.6,3.4c1.4,0.7,2.9,1.1,4.2,1.7c1.4,0.6,2.6,1.3,3.4,2.1c0.8,0.8,1.3,1.7,1.4,3.3
	c0,0,0,0,0,0.1H21.8c0.1-1.5,0.6-2.4,1.4-3.2c0.8-0.8,2.1-1.4,3.5-2c1.4-0.6,2.9-1.1,4.3-1.8c1.4-0.7,2.8-1.7,3.5-3.5
	c0.1-0.2,0.1-0.4,0.1-0.7v-3.8c0-0.6-0.3-1.2-0.8-1.6c0,0-0.4-0.4-0.6-0.8c-0.3-0.6-0.6-1.4-0.7-2.1c-0.1-0.7-0.6-1.4-1.3-1.6
	c0-0.1-0.2-0.3-0.2-0.7c0-0.1,0-0.1-0.1-0.2h-0.2c0.8-0.4,1.1-1.3,0.9-2.2c-0.8-3.1-0.8-5.8-0.1-7.4C32.3,21,33.6,20,37.1,19.9z
	 M71.4,27.2L76,28l-4.6,27.2V27.2z M86.8,32.9l7.1,1.6L80.3,93.9L20.9,80.2l0.7-3.5L75.8,86c1,0.2,2-0.5,2.2-1.5l0.2-1.4
	c0.4-0.3,0.7-0.7,0.8-1.2l9.8-42.7c0.2-1-0.4-2-1.4-2.3l-1.3-0.4L86.8,32.9z"/>
</svg>
