<?xml version="1.0" encoding="utf-8"?>
<!-- Generator: Adobe Illustrator 25.0.0, SVG Export Plug-In . SVG Version: 6.00 Build 0)  -->
<svg version="1.1" id="Layer_1" xmlns="http://www.w3.org/2000/svg" xmlns:xlink="http://www.w3.org/1999/xlink" x="0px" y="0px"
	 viewBox="0 0 100 100" style="enable-background:new 0 0 100 100;" xml:space="preserve">
<style type="text/css">
	.st0{fill:#0032A0;}
</style>
<path class="st0" d="M95.4,44L83.6,32.1c-0.6-0.6-1.3-0.9-2.1-0.9H68.7V14.5c0-1.6-1.3-3-3-3H6.6c-1.6,0-3,1.3-3,3v51.2
	c0,1.6,1.3,3,3,3h7c-1.3,2-2.1,4.4-2.1,6.9c0,7.1,5.7,12.8,12.8,12.8s12.8-5.7,12.8-12.8c0-2.5-0.8-4.9-2.1-6.9h29.7
	c-1.3,2-2,4.4-2,6.9c0,7.1,5.7,12.8,12.8,12.8c7.1,0,12.8-5.7,12.8-12.8c0-2.5-0.8-4.9-2.1-6.9h7c1.6,0,3-1.3,3-3V46.1
	C96.3,45.3,96,44.5,95.4,44z M9.6,17.5h53.2v16.8v28.6H9.6V17.5z M31.3,75.6c0,3.8-3.1,6.9-6.9,6.9s-6.9-3.1-6.9-6.9
	s3.1-6.9,6.9-6.9S31.3,71.8,31.3,75.6z M82.5,75.6c0,3.8-3.1,6.9-6.9,6.9s-6.9-3.1-6.9-6.9s3.1-6.9,6.9-6.9S82.5,71.8,82.5,75.6z
	 M90.4,62.8H68.7V37.2h11.6l10.1,10.1C90.4,47.3,90.4,62.8,90.4,62.8z"/>
</svg>
