<?xml version="1.0" encoding="utf-8"?>
<!-- Generator: Adobe Illustrator 25.0.0, SVG Export Plug-In . SVG Version: 6.00 Build 0)  -->
<svg version="1.1" id="Layer_1" xmlns="http://www.w3.org/2000/svg" xmlns:xlink="http://www.w3.org/1999/xlink" x="0px" y="0px"
	 viewBox="0 0 100 100" style="enable-background:new 0 0 100 100;" xml:space="preserve">
<style type="text/css">
	.st0{fill:#0032A0;}
</style>
<path class="st0" d="M87.6,4.3H12.4c-5.7,0-10.3,4.4-10.3,9.8v71.8c0,5.4,4.6,9.8,10.3,9.8h75.2c5.7,0,10.3-4.4,10.3-9.8V14.1
	C97.8,8.7,93.3,4.3,87.6,4.3z M77.1,36.7c0,0.6,0,1.2,0,1.7c0,17.7-14.1,38-39.9,38c-7.9,0-15.3-2.2-21.5-6c1.1,0.1,2.2,0.2,3.4,0.2
	c6.6,0,12.6-2.1,17.4-5.7c-6.2-0.1-11.3-4-13.1-9.3c2.2,0.3,4.1,0.3,6.3-0.2c-6.4-1.2-11.2-6.6-11.2-13.1v-0.2c1.9,1,4,1.6,6.3,1.7
	c-1.9-1.2-3.5-2.9-4.6-4.8c-1.1-1.9-1.7-4.1-1.7-6.3c0-2.5,0.7-4.8,1.9-6.7c6.9,8.1,17.3,13.4,28.9,14c-2-9.1,5.1-16.4,13.7-16.4
	c4,0,7.7,1.6,10.2,4.2c3.2-0.6,6.2-1.7,8.9-3.2c-1,3.1-3.2,5.7-6.2,7.4c2.8-0.3,5.6-1,8.1-2.1C82.3,32.4,79.9,34.8,77.1,36.7z"/>
</svg>
