<?xml version="1.0" encoding="utf-8"?>
<!-- Generator: Adobe Illustrator 25.0.0, SVG Export Plug-In . SVG Version: 6.00 Build 0)  -->
<svg version="1.1" id="Layer_1" xmlns="http://www.w3.org/2000/svg" xmlns:xlink="http://www.w3.org/1999/xlink" x="0px" y="0px"
	 viewBox="0 0 100 100" style="enable-background:new 0 0 100 100;" xml:space="preserve">
<style type="text/css">
	.st0{fill:#0032A0;}
</style>
<path class="st0" d="M41.9,39l20.5,11.1L41.9,61.2V39z M98.1,13.9v72.3c0,5.4-4.6,9.9-10.3,9.9H12.1c-5.7,0-10.3-4.4-10.3-9.9V13.9
	C1.8,8.5,6.4,4,12.1,4h75.8C93.5,4.1,98.1,8.5,98.1,13.9z M89.1,50.1c0,0,0-12.2-1.6-18.1c-0.9-3.2-3.6-5.8-6.9-6.7
	C74.5,23.7,50,23.7,50,23.7s-24.5,0-30.6,1.6c-3.4,0.9-6,3.4-6.9,6.7c-1.6,5.9-1.6,18.1-1.6,18.1s0,12.2,1.6,18.1
	c0.9,3.2,3.6,5.7,6.9,6.6c6.1,1.6,30.6,1.6,30.6,1.6s24.5,0,30.6-1.6c3.4-0.9,6-3.3,6.9-6.6C89.1,62.4,89.1,50.1,89.1,50.1z"/>
</svg>
