<?xml version="1.0" encoding="utf-8"?>
<!-- Generator: Adobe Illustrator 24.3.0, SVG Export Plug-In . SVG Version: 6.00 Build 0)  -->
<svg version="1.1" id="Layer_1" xmlns="http://www.w3.org/2000/svg" xmlns:xlink="http://www.w3.org/1999/xlink" x="0px" y="0px"
	 viewBox="0 0 72 72" style="enable-background:new 0 0 72 72;" xml:space="preserve">
<style type="text/css">
	.st0{fill:#0032A0;}
	.st1{fill:#FFFFFF;}
</style>
<circle class="st0" cx="35.6" cy="35.6" r="35.6"/>
<path class="st1" d="M49.5,47.1v6.7H22.6v-5.3l13.7-13c1.5-1.4,2.4-2.6,2.9-3.6c0.5-1,0.8-2,0.8-3c0-1.4-0.5-2.5-1.5-3.3
	c-0.9-0.8-2.4-1.2-4.2-1.2c-1.6,0-3,0.3-4.2,0.9c-1.3,0.6-2.3,1.5-3.1,2.6l-6-3.9c1.4-2.1,3.3-3.7,5.7-4.8c2.4-1.2,5.2-1.8,8.4-1.8
	c2.6,0,4.9,0.4,6.9,1.3c2,0.8,3.5,2.1,4.6,3.7c1.1,1.6,1.7,3.4,1.7,5.5c0,1.9-0.4,3.7-1.2,5.4c-0.8,1.7-2.4,3.6-4.7,5.8l-8.2,7.7
	H49.5z"/>
</svg>
