<?xml version="1.0" encoding="utf-8"?>
<!-- Generator: Adobe Illustrator 24.3.0, SVG Export Plug-In . SVG Version: 6.00 Build 0)  -->
<svg version="1.1" id="Layer_1" xmlns="http://www.w3.org/2000/svg" xmlns:xlink="http://www.w3.org/1999/xlink" x="0px" y="0px"
	 viewBox="0 0 72 72" style="enable-background:new 0 0 72 72;" xml:space="preserve">
<style type="text/css">
	.st0{fill:#0032A0;}
	.st1{fill:#FFFFFF;}
</style>
<circle class="st0" cx="35.6" cy="35.6" r="35.6"/>
<path class="st1" d="M39.5,32.7c3.1,0.5,5.5,1.7,7.2,3.5c1.7,1.8,2.5,4,2.5,6.7c0,2.1-0.5,4-1.6,5.7c-1.1,1.7-2.7,3.1-5,4.2
	c-2.2,1-4.9,1.6-8.1,1.6c-2.5,0-5-0.3-7.4-1c-2.4-0.7-4.5-1.6-6.1-2.8l3.2-6.3c1.4,1,2.9,1.8,4.7,2.4c1.8,0.5,3.6,0.8,5.5,0.8
	c2.1,0,3.7-0.4,4.9-1.2c1.2-0.8,1.8-1.9,1.8-3.4c0-2.9-2.2-4.4-6.7-4.4h-3.8v-5.4l7.3-8.3H22.6v-6.6h24.9v5.3L39.5,32.7z"/>
</svg>
