<?xml version="1.0" encoding="utf-8"?>
<!-- Generator: Adobe Illustrator 24.3.0, SVG Export Plug-In . SVG Version: 6.00 Build 0)  -->
<svg version="1.1" id="Layer_1" xmlns="http://www.w3.org/2000/svg" xmlns:xlink="http://www.w3.org/1999/xlink" x="0px" y="0px"
	 viewBox="0 0 72 72" style="enable-background:new 0 0 72 72;" xml:space="preserve">
<style type="text/css">
	.st0{fill:#0032A0;}
	.st1{fill:#FFFFFF;}
</style>
<circle class="st0" cx="35.6" cy="35.6" r="35.6"/>
<path class="st1" d="M57.9,26.3c0-0.7-0.3-1.4-0.8-1.9l-3.9-3.9c-0.5-0.5-1.2-0.8-1.9-0.8c-0.7,0-1.4,0.3-1.9,0.8L30.8,39.1
	l-8.3-8.4c-0.5-0.5-1.2-0.8-1.9-0.8s-1.4,0.3-1.9,0.8l-3.9,3.9c-0.5,0.5-0.8,1.2-0.8,1.9s0.3,1.4,0.8,1.9L25,48.7l3.9,3.9
	c0.5,0.5,1.2,0.8,1.9,0.8c0.7,0,1.4-0.3,1.9-0.8l3.9-3.9l20.5-20.5C57.6,27.7,57.9,27,57.9,26.3z"/>
</svg>
