<?xml version="1.0" encoding="utf-8"?>
<!-- Generator: Adobe Illustrator 24.3.0, SVG Export Plug-In . SVG Version: 6.00 Build 0)  -->
<svg version="1.1" id="Layer_1" xmlns="http://www.w3.org/2000/svg" xmlns:xlink="http://www.w3.org/1999/xlink" x="0px" y="0px"
	 viewBox="0 0 421.1 421.1" style="enable-background:new 0 0 421.1 421.1;" xml:space="preserve">
<style type="text/css">
	.st0{fill:#0032A0;}
</style>
<g>
	<path class="st0" d="M6,222.1h193v193H6V222.1z"/>
	<path class="st0" d="M222.1,6h193v193h-193V6z"/>
	<path class="st0" d="M222.1,222.1h193v193h-193V222.1z"/>
	<g transform="translate(0 -952.36218)">
		<path class="st0" d="M50.3,962l11.6,30l32.7,2.1l-25.2,20.4l8.2,31.4l-27.3-17.7L23,1045.9l8.2-31.4L6,994.1l32.7-2.1L50.3,962z"
			/>
		<path class="st0" d="M155.3,962l11.6,30l32.1,2.1l-24.6,20.4l8.2,31.4l-27.3-17.7l-27.3,17.7l8.2-31.4L111,994.1l32-2.1L155.3,962
			z"/>
		<path class="st0" d="M50.3,1065l11.6,30l32.7,2l-25.2,20.5l8.2,31.4l-27.3-17.1L23,1148.9l8.2-31.4L6,1097l32.7-2L50.3,1065z"/>
		<path class="st0" d="M155.3,1065l11.6,30l32.1,2l-24.6,20.5l8.2,31.4l-27.3-17.1l-27.3,17.1l8.2-31.4L111,1097l32-2L155.3,1065z"
			/>
	</g>
</g>
</svg>
