<?xml version="1.0" encoding="utf-8"?>
<!-- Generator: Adobe Illustrator 24.3.0, SVG Export Plug-In . SVG Version: 6.00 Build 0)  -->
<svg version="1.1" id="Layer_1" xmlns="http://www.w3.org/2000/svg" xmlns:xlink="http://www.w3.org/1999/xlink" x="0px" y="0px"
	 viewBox="0 0 716 67" style="enable-background:new 0 0 716 67;" xml:space="preserve">
<style type="text/css">
	.st0{fill:#0032A0;}
</style>
<g>
	<path class="st0" d="M7.9,34.7h28.3V63H7.9L7.9,34.7z"/>
	<path class="st0" d="M39.6,3h28.3v28.3H39.6L39.6,3z"/>
	<path class="st0" d="M39.6,34.7h28.3V63H39.6L39.6,34.7z"/>
	<g transform="translate(0 -952.36218)">
		<path class="st0" d="M14.4,955.9l1.7,4.4l4.8,0.3l-3.7,3l1.2,4.6l-4-2.6l-4,2.6l1.2-4.6l-3.7-3l4.8-0.3L14.4,955.9z"/>
		<path class="st0" d="M29.8,955.9l1.7,4.4l4.7,0.3l-3.6,3l1.2,4.6l-4-2.6l-4,2.6l1.2-4.6l-3.7-3l4.7-0.3L29.8,955.9z"/>
		<path class="st0" d="M14.4,971l1.7,4.4l4.8,0.3l-3.7,3l1.2,4.6l-4-2.5l-4,2.5l1.2-4.6l-3.7-3l4.8-0.3L14.4,971z"/>
		<path class="st0" d="M29.8,971l1.7,4.4l4.7,0.3l-3.6,3l1.2,4.6l-4-2.5l-4,2.5l1.2-4.6l-3.7-3l4.7-0.3L29.8,971z"/>
	</g>
	<path class="st0" d="M122.8,16.5l-0.3-3.2h3.2v13.9h-2.2c-0.4-3.7-1.7-6.6-3.9-8.7s-5.1-3.1-8.5-3.1c-2.8,0-5.4,0.8-7.8,2.4
		c-2.3,1.6-4.2,3.8-5.5,6.8c-1.4,2.9-2,6.3-2,10.1c0,3.7,0.7,7,2.2,9.9c1.4,2.9,3.4,5.2,5.8,6.8s5.1,2.4,8.1,2.4
		c2.7,0,5.3-0.6,7.7-1.8c2.5-1.2,4.5-2.9,6.1-5.1l1.6,1.3c-2.3,3.2-5,5.5-8,6.8s-6,2-9,2c-3.9,0-7.4-0.9-10.5-2.8s-5.5-4.4-7.3-7.7
		c-1.7-3.2-2.6-6.8-2.6-10.8c0-3.9,0.8-7.6,2.4-11s3.9-6.2,7.1-8.4c3.1-2.1,6.9-3.2,11.4-3.2C115.1,12.8,119.1,14.1,122.8,16.5
		L122.8,16.5z"/>
	<path class="st0" d="M163.8,16.1c3.2,2.2,5.6,4.9,7.2,8.3s2.4,6.8,2.4,10.4c0,3.5-0.8,7-2.4,10.4s-3.9,6.2-7.1,8.3
		c-3.1,2.2-7,3.3-11.4,3.3c-4.8,0-8.8-1.1-12-3.2s-5.6-4.8-7.1-8.2c-1.5-3.3-2.3-6.9-2.3-10.6c0-3.6,0.8-7,2.4-10.4s3.9-6.1,7.1-8.3
		c3.1-2.2,6.9-3.3,11.4-3.3C156.7,12.8,160.6,13.9,163.8,16.1L163.8,16.1z M143.9,17.9c-2.2,1.8-3.9,4.1-5.1,6.9
		c-1.1,2.8-1.7,5.8-1.7,8.9c0,3.2,0.6,6.3,1.7,9.5c1.2,3.2,2.9,5.8,5.3,7.9s5.2,3.1,8.6,3.1c3.1,0,5.8-0.9,8-2.7s3.9-4.1,5-6.9
		s1.7-5.7,1.7-8.8c0-3.4-0.6-6.7-1.9-9.9c-1.2-3.2-3-5.8-5.4-7.8s-5.1-3-8.3-3C148.8,15.2,146.1,16.1,143.9,17.9L143.9,17.9z"/>
	<path class="st0" d="M190.9,15.8c-1.4,0-2.4,0.4-3,1s-0.9,1.3-1,2.1s-0.1,2.2-0.1,4.3v25.7c0,2.1-0.1,3.6-0.2,4.7l11.2-0.2
		c2.6,0,4.5-0.8,5.8-2.4s1.9-4.1,1.9-7.6h2l-0.4,12.4h-29.8v-2c1.4,0,2.4-0.4,3-1s0.9-1.3,1-2.1s0.1-2.2,0.1-4.3V20.5
		c0-1.7,0.1-3.1,0.2-4.3l-4.3,0.2v-2.6h13.5v2L190.9,15.8z"/>
	<path class="st0" d="M225.5,15.8c-1.4,0-2.4,0.4-3,1s-0.9,1.3-1,2.1s-0.1,2.2-0.1,4.3v25.7c0,2.1-0.1,3.6-0.2,4.7l11.2-0.2
		c2.6,0,4.5-0.8,5.8-2.4s1.9-4.1,1.9-7.6h2l-0.4,12.4H212v-2c1.4,0,2.4-0.4,3-1s0.9-1.3,1-2.1s0.1-2.2,0.1-4.3V20.5
		c0-1.7,0.1-3.1,0.2-4.3l-4.3,0.2v-2.6h13.5V15.8z"/>
	<path class="st0" d="M275.9,24.3h-2c0-3.3-0.7-5.5-2.1-6.7s-3.4-1.8-6-1.7l-5.2,0.1c-1.4,0-2.5,0.3-3.1,0.8s-1,1.2-1.2,2.1
		s-0.2,2.3-0.2,4.2v9.6l11.3,0.1l-0.4-5.2h2.6v12.6h-2c0-1.5-0.2-2.6-0.5-3.4c-0.4-0.8-0.9-1.3-1.6-1.6s-1.8-0.4-3.1-0.4l-1.9,0.1
		l-4.4,0.2v13.7c0,2.1-0.1,3.6-0.2,4.7l11.5-0.2c2.8,0,4.9-0.8,6.4-2.1c1.5-1.4,2.2-3.8,2.2-7.2h2l-0.4,11.7h-31v-2
		c1.4,0,2.4-0.4,3-1s0.9-1.3,1-2.1s0.1-2.2,0.1-4.3V20.5c0-1.7,0.1-3.1,0.2-4.3l-4.3,0.2v-2.6h28.9L275.9,24.3z"/>
	<path class="st0" d="M311,13.7c2.2,0.6,4.2,1.4,5.9,2.4l-0.2-2.9h3.3V27h-2.2c-0.3-3.7-1.6-6.6-4-8.6c-2.4-2.1-5.4-3.1-8.9-3.1
		c-2.8,0-5.4,0.8-7.8,2.5c-2.3,1.6-4.2,3.9-5.6,6.8s-2.1,6.2-2.1,9.8c0,3.8,0.7,7.1,2,10.1c1.4,3,3.3,5.3,5.7,7s5.2,2.5,8.3,2.5
		c1.7,0,3.5-0.2,5.3-0.8c1.8-0.5,3.5-1.2,5-2.2V37.7l-4.2,0.2v-2.6h13.6v2c-1.9,0-3.1,0.7-3.6,2.2s-0.7,3.1-0.7,5v9.2h-1.6
		c-1.7,0-3.8,0.5-6.5,1.6c-1.2,0.5-2.6,0.9-4.3,1.1c-1.6,0.3-3.1,0.4-4.5,0.4c-4,0-7.5-0.9-10.6-2.5c-3.1-1.7-5.5-4.1-7.2-7.3
		s-2.6-6.9-2.6-11.2c0-3.9,0.8-7.6,2.4-11.1s3.9-6.3,7.1-8.5s7-3.3,11.4-3.3C306.6,12.8,308.8,13.1,311,13.7L311,13.7z"/>
	<path class="st0" d="M358.9,24.3h-2c0-3.3-0.7-5.5-2.1-6.7s-3.4-1.8-6-1.7l-5.2,0.1c-1.4,0-2.5,0.3-3.1,0.8s-1,1.2-1.2,2.1
		s-0.2,2.3-0.2,4.2v9.6l11.3,0.1l-0.4-5.2h2.6v12.6h-2c0-1.5-0.2-2.6-0.5-3.4c-0.4-0.8-0.9-1.3-1.6-1.6s-1.8-0.4-3.1-0.4l-1.9,0.1
		l-4.4,0.2v13.7c0,2.1-0.1,3.6-0.2,4.7l11.5-0.2c2.8,0,4.9-0.8,6.4-2.1c1.5-1.4,2.2-3.8,2.2-7.2h2l-0.4,11.7h-31v-2
		c1.4,0,2.4-0.4,3-1s0.9-1.3,1-2.1s0.1-2.2,0.1-4.3V20.5c0-1.7,0.1-3.1,0.2-4.3l-4.3,0.2v-2.6h28.9L358.9,24.3z"/>
	<path class="st0" d="M473,46.8c0.4,1.1,0.8,2.2,1.1,3.5s0.5,2.3,0.4,3.1l4.1-0.2v2.6h-13.7v-2c2.4,0,3.5-1,3.5-2.9
		c0-0.8-0.2-1.7-0.6-2.8l-2.1-5.6l-15.6,0.4c-0.6,1.6-1.3,3.8-2.1,6.4c-0.4,1.3-0.9,2.7-1.5,4.1l4.7-0.2v2.6H440v-2
		c1,0,1.8-0.2,2.4-0.7s1.1-1.1,1.5-1.8s0.8-1.8,1.4-3.3l0.6-1.7l12.4-33.7h1.4L473,46.8z M457.8,21.4l-2.5,6.8l-3.2,9.1l-1,2.9H465
		l-4.3-11.5l-2.7-7.4L457.8,21.4L457.8,21.4z"/>
	<path class="st0" d="M531.4,15.8c-1.4,0-2.5,0.4-3.2,1.2s-1,2.2-1,4.2l0.1,1.2l1.6,27.3c0.1,0.9,0.1,2.2,0.1,3.7l4.4-0.2v2.6H520
		v-2c1.6,0,2.6-0.5,3.2-1.4s0.8-2.2,0.8-4c0-0.8,0-1.3-0.1-1.7l-1.6-25.6c-0.1,0.2-0.2,0.5-0.3,0.8s-0.3,0.7-0.5,1.1L508,56.4h-1.8
		l-3.4-7.5c-3-6.8-5.4-12.1-7.1-16s-3.3-8-4.9-12.3l-0.1,2.6c-0.4,11.7-0.6,20.1-0.7,25.1c0,0.6,0,1-0.1,1.3c0,1.4-0.1,2.6-0.2,3.8
		l4.5-0.2v2.6H483v-2c1.7,0,2.8-0.5,3.3-1.4s0.8-2.3,0.9-4.1l1.3-32.1l-4.3,0.2v-2.6h9.2l8.2,18.8c3,7,5.2,12.2,6.8,15.8h0.1
		c0.5-1.2,1.5-3.8,3.1-7.7c1.5-3.8,3.3-8.1,5.2-12.7c2.3-5.4,4.2-10.1,5.9-14.3h8.9v2.1L531.4,15.8z"/>
	<path class="st0" d="M567.3,24.3h-2c0-3.3-0.7-5.5-2.1-6.7s-3.4-1.8-6-1.7L552,16c-1.4,0-2.5,0.3-3.1,0.8s-1,1.2-1.2,2.1
		s-0.2,2.3-0.2,4.2v9.6l11.3,0.1l-0.4-5.2h2.6v12.6h-2c0-1.5-0.2-2.6-0.5-3.4c-0.4-0.8-0.9-1.3-1.6-1.6s-1.8-0.4-3.1-0.4l-1.9,0.1
		l-4.4,0.2v13.7c0,2.1-0.1,3.6-0.2,4.7l11.5-0.2c2.8,0,4.9-0.8,6.4-2.1c1.5-1.4,2.2-3.8,2.2-7.2h2L569,55.7h-31v-2
		c1.4,0,2.4-0.4,3-1s0.9-1.3,1-2.1s0.1-2.2,0.1-4.3V20.5c0-1.7,0.1-3.1,0.2-4.3l-4.3,0.2v-2.6h29L567.3,24.3z"/>
	<path class="st0" d="M601.5,16.6c2.6,1.8,3.9,4.5,3.9,7.9c0,2.8-0.8,5.2-2.5,7.4s-4.6,3.7-8.8,4.6c0.7,0.5,1.3,1.1,1.9,1.9
		c0.6,0.7,1.3,1.8,2.3,3.4l4.1,6.4c0.9,1.4,1.6,2.5,2.2,3.2s1.3,1.3,2.1,1.8s1.8,0.7,3,0.7v2h-7.6c-1.1-0.9-2-1.9-2.7-2.9
		s-1.6-2.2-2.6-3.8l-4-6.4l-0.8-1.3c-0.6-1.1-1.2-2-1.7-2.6c-0.5-0.7-1-1.3-1.6-1.8c-0.4,0-0.9,0.1-1.7,0.1c-1.1,0-1.9,0-2.4-0.1
		v11.6c0,2.1-0.1,3.7-0.2,4.7l4.3-0.2v2.6h-13.5v-2c1.4,0,2.4-0.4,3-1s0.9-1.3,1-2.1s0.1-2.2,0.1-4.3V20.5c0-1.7,0.1-3.1,0.2-4.3
		l-4.3,0.2v-2.6c4.2-0.1,7.3-0.1,9.4-0.1c1.9,0,3.4,0,4.3,0.1C594.8,13.8,598.9,14.8,601.5,16.6z M585.9,16.9c-0.6,0.6-0.9,1.2-1,2
		s-0.1,2.2-0.1,4.3v11.5c1.2,0.1,2.1,0.1,2.6,0.1c8.2,0,12.2-3.2,12.2-9.7c0-3-0.9-5.3-2.6-6.8c-1.8-1.5-4.5-2.3-8.1-2.3
		C587.5,16,586.5,16.3,585.9,16.9L585.9,16.9z"/>
	<path class="st0" d="M628.1,15.8c-1.4,0-2.4,0.4-3,1s-0.9,1.3-1,2.1s-0.1,2.2-0.1,4.3v25.5c0,2.1-0.1,3.7-0.2,4.7l4.3-0.2v2.6
		h-13.5v-2c1.4,0,2.4-0.4,3-1s0.9-1.3,1-2.1s0.1-2.2,0.1-4.3V20.5c0-1.7,0.1-3.1,0.2-4.3l-4.3,0.2v-2.6h13.5V15.8z"/>
	<path class="st0" d="M665.4,16.5l-0.3-3.2h3.2v13.9h-2.2c-0.4-3.7-1.7-6.6-3.9-8.7s-5.1-3.1-8.5-3.1c-2.8,0-5.4,0.8-7.8,2.4
		c-2.3,1.6-4.2,3.8-5.6,6.8c-1.4,2.9-2,6.3-2,10.1c0,3.7,0.7,7,2.2,9.9c1.4,2.9,3.4,5.2,5.8,6.8s5.1,2.4,8.1,2.4
		c2.7,0,5.3-0.6,7.7-1.8c2.5-1.2,4.5-2.9,6.1-5.1l1.6,1.3c-2.3,3.2-5,5.5-8,6.8s-6,2-9,2c-3.9,0-7.4-0.9-10.5-2.8s-5.5-4.4-7.3-7.7
		c-1.7-3.2-2.6-6.8-2.6-10.8c0-3.9,0.8-7.6,2.4-11s3.9-6.2,7.1-8.4c3.1-2.1,6.9-3.2,11.4-3.2C657.6,12.8,661.7,14.1,665.4,16.5z"/>
	<path class="st0" d="M703.6,46.8c0.4,1.1,0.8,2.2,1.1,3.5s0.5,2.3,0.4,3.1l4.1-0.2v2.6h-13.7v-2c2.4,0,3.5-1,3.5-2.9
		c0-0.8-0.2-1.7-0.6-2.8l-2.1-5.6l-15.6,0.4c-0.6,1.6-1.3,3.8-2.1,6.4c-0.4,1.3-0.9,2.7-1.5,4.1l4.7-0.2v2.6h-11.2v-2
		c1,0,1.8-0.2,2.4-0.7s1.1-1.1,1.5-1.8s0.8-1.8,1.4-3.3l0.6-1.7l12.4-33.7h1.4L703.6,46.8z M688.4,21.4l-2.5,6.8l-3.2,9.1l-1,2.9
		h13.9l-4.3-11.5l-2.7-7.4L688.4,21.4L688.4,21.4z"/>
	<path class="st0" d="M400.8,25.2c1.2,0.7,2.1,1.7,2.8,3.1s1,3,1,4.8c0,2.3-0.4,4.3-1.2,6.2s-2,3.4-3.5,4.5s-3.3,1.7-5.4,1.7
		c-2.6,0-4.6-0.9-5.9-2.6s-2-3.9-2-6.6c0-2.2,0.4-4.3,1.2-6.2s2-3.3,3.5-4.4s3.3-1.6,5.4-1.6C398.3,24.1,399.6,24.5,400.8,25.2z
		 M393,26.9c-0.9,0.9-1.6,2-2,3.5c-0.5,1.5-0.7,3.2-0.7,5c0,2.3,0.4,4.3,1.1,6s1.9,2.6,3.6,2.6c1.4,0,2.5-0.5,3.4-1.6s1.5-2.4,2-4
		s0.6-3.1,0.6-4.6c0-2.3-0.4-4.3-1.1-5.9s-2-2.4-3.8-2.4C394.9,25.6,393.9,26.1,393,26.9z"/>
	<path class="st0" d="M421.2,14.4c0.5,0.4,0.8,0.9,0.8,1.6c0,0.4-0.1,0.8-0.4,1.1c-0.3,0.4-0.7,0.5-1.2,0.5s-1-0.2-1.3-0.6
		s-0.5-0.9-0.4-1.5c-0.2-0.1-0.5-0.2-0.9-0.2c-1.3,0-2.2,0.8-2.8,2.3s-1,3.8-1.2,6.8h5.8l-0.1,1.6l-5.8,0.1l-0.1,2.3
		c-0.2,3.2-0.3,5.5-0.5,6.9l-0.2,2.9c-0.3,4-0.7,7.2-1.2,9.6c-0.4,2.3-1.3,4.3-2.5,5.9s-3,2.4-5.3,2.4c-1,0-1.8-0.2-2.4-0.5
		c-0.5-0.4-0.8-0.9-0.8-1.6c0-0.4,0.1-0.8,0.4-1.1c0.3-0.4,0.7-0.6,1.2-0.6s0.9,0.2,1.2,0.5s0.5,0.8,0.5,1.4
		c0.3,0.2,0.7,0.3,1.2,0.3c1,0,1.7-0.5,2.3-1.6c0.5-1.1,0.9-2.5,1.1-4.2s0.5-4.3,0.7-7.7c0.2-2.7,0.3-4.8,0.5-6.1l0.2-3
		c0.1-2.1,0.3-4,0.5-5.8h-3.6l0.2-1.8h3.6c0.5-3.4,1.4-6,2.6-7.9s3.2-2.8,5.8-2.8C420,13.9,420.7,14.1,421.2,14.4L421.2,14.4z"/>
</g>
</svg>
