<?xml version="1.0" encoding="utf-8"?>
<!-- Generator: Adobe Illustrator 24.3.0, SVG Export Plug-In . SVG Version: 6.00 Build 0)  -->
<svg version="1.1" id="Layer_1" xmlns="http://www.w3.org/2000/svg" xmlns:xlink="http://www.w3.org/1999/xlink" x="0px" y="0px"
	 viewBox="0 0 125 116" style="enable-background:new 0 0 125 116;" xml:space="preserve">
<style type="text/css">
	.st0{fill:#2C2A22;}
</style>
<path class="st0" d="M41.1,30v4.4H28.3v2.4v13.7v8.1c0,12.2-2.4,22.4-10.3,30.3l-1,1v5.3h11.3V108H102V58.7V36.9v-2.4H89.2V30h-5.9
	v4.4H47V30H41.1z M34.2,40.3h6.9v3.4H47v-3.4h36.4v3.4h5.9v-3.4h6.9v6.9H34.2V40.3z M34.2,53h61.9v5.6c0,11.7-2.5,23-9.6,30.7H25.9
	c5.9-8.8,8.3-20.2,8.3-30.7V53z M41.1,60.9v6.9H48v-6.9H41.1z M54.8,60.9v6.9h6.9v-6.9H54.8z M68.6,60.9v6.9h6.9v-6.9H68.6z
	 M82.4,60.9v6.9h6.9v-6.9H82.4z M41,74.7l0,6.9h6.9l0-6.9H41z M54.6,74.6v6.9l6.9,0v-6.9H54.6z M68.6,74.7v6.9h6.9v-6.9H68.6z
	 M96.1,88.3v13.8H34.2v-6.9h56.5l1-1C93.5,92.4,94.8,90.4,96.1,88.3z"/>
</svg>
