<?xml version="1.0" encoding="utf-8"?>
<!-- Generator: Adobe Illustrator 24.3.0, SVG Export Plug-In . SVG Version: 6.00 Build 0)  -->
<svg version="1.1" id="Layer_1" xmlns="http://www.w3.org/2000/svg" xmlns:xlink="http://www.w3.org/1999/xlink" x="0px" y="0px"
	 viewBox="0 0 125 116" style="enable-background:new 0 0 125 116;" xml:space="preserve">
<style type="text/css">
	.st0{fill:#2C2A22;}
</style>
<path class="st0" d="M21.5,30c-0.8,0.1-1.4,0.9-1.4,1.7v56.5c0,0.9,0.7,1.7,1.7,1.7H27l-0.2,1.4c-0.1,0.4,0,0.9,0.3,1.3
	c0.3,0.4,0.7,0.6,1.1,0.7l5.1,0.9l-1,4.4c-0.2,0.9,0.4,1.8,1.2,2L88.6,113c0.9,0.2,1.8-0.4,2-1.2l12.6-55c0.2-0.9-0.4-1.8-1.2-2
	L94,53l1.2-7.4c0.2-0.9-0.4-1.8-1.4-1.9l-13.9-2.4v-9.6c0-0.9-0.7-1.7-1.7-1.7H21.8c-0.1,0-0.1,0-0.2,0C21.6,30,21.5,30,21.5,30z
	 M23.4,33.3h53.2v53.2H23.4V33.3z M28.1,36.6c-0.8,0.1-1.4,0.9-1.4,1.7v38.2c0,0.9,0.7,1.7,1.7,1.7h43.2c0.9,0,1.7-0.7,1.7-1.7V38.3
	c0-0.9-0.7-1.7-1.7-1.7H28.4c-0.1,0-0.1,0-0.2,0C28.2,36.6,28.2,36.6,28.1,36.6z M30.1,40H70v34.9h-3.3c0-0.1,0-0.2,0-0.3
	c-0.1-2.1-1-3.8-2.2-5c-1.2-1.2-2.6-1.9-3.9-2.4c-1.3-0.6-2.7-1.1-3.6-1.5c-0.9-0.4-1.2-0.8-1.4-1.1c-0.1-0.7,0-1.4,0.1-2.2
	c0,0,0.1-0.1,0.1-0.1c0.2-0.3,0.5-0.7,0.7-1.1c0.3-0.6,0.5-1.5,0.7-2.3c0.2-0.2,0.6-0.1,0.7-0.4c0.5-0.6,0.7-1.5,0.8-2.4h0.1
	c0,0,0,0,0-0.1s0,0,0-0.1c0.1-0.9-0.1-1.7-0.6-2.3c0.4-1.3,0.8-2.9,0.7-5c-0.1-1.2-0.4-2.5-1.2-3.6c-0.7-1-1.9-1.7-3.4-2
	c-1.1-0.9-2.5-1.4-4.2-1.4c0,0,0,0-0.1,0c-3.9,0.1-6.6,1.8-7.8,4.4c-1,2.3-0.8,5-0.2,7.8c-0.4,0.6-0.6,1.3-0.6,2.1
	c0,0.1,0,0.1,0,0.2c0.1,1.1,0.4,2,0.9,2.6c0.1,0.2,0.4,0.2,0.6,0.3c0.2,0.8,0.4,1.6,0.7,2.3c0.2,0.4,0.6,0.7,0.9,1v2.4
	c-0.1,0.3-0.5,0.7-1.3,1.1c-0.9,0.5-2.2,0.9-3.5,1.5c-1.4,0.6-2.8,1.3-4,2.4c-1.2,1.2-2.1,2.9-2.3,5c0,0,0,0.1,0,0.1h-3.3V40z
	 M79.9,44.6l11.7,2.1l-9,52.4l-52.4-9l0.1-0.3H78l1.2,0.2c0.9,0.1,1.7-0.5,1.9-1.4l6.5-37.8c0.1-0.4,0-0.9-0.3-1.3
	C87,49.3,86.6,49,86.2,49L79.9,48V44.6z M50,45C50.1,45,50,45,50,45c1.3,0,2.3,0.7,2.2,0.5c0.3,0.3,0.7,0.6,1.1,0.6
	c0.9,0.1,1.3,0.4,1.6,0.8c0.3,0.4,0.5,1.1,0.6,1.9c0.1,1.7-0.4,3.8-0.7,4.8c-0.2,0.7,0,1.4,0.6,1.9c0,0,0,0.1,0,0.1
	c-0.1,0.5-0.2,0.7-0.2,0.7c-0.6,0.2-1.1,0.8-1.1,1.4c-0.1,0.5-0.3,1.3-0.6,1.8c-0.1,0.3-0.3,0.5-0.4,0.7c-0.1,0.1-0.1,0.2-0.2,0.2
	c-0.4,0.3-0.6,0.8-0.6,1.3c0,1-0.2,2,0,3.5c0,0.1,0.1,0.3,0.1,0.4c0.6,1.5,1.9,2.4,3.1,3c1.2,0.6,2.5,1,3.7,1.5
	c1.2,0.5,2.3,1.1,3,1.8c0.7,0.7,1.1,1.5,1.2,2.9c0,0,0,0,0,0.1H36.7c0.1-1.3,0.5-2.1,1.2-2.8c0.7-0.7,1.8-1.3,3-1.8
	c1.2-0.5,2.5-0.9,3.7-1.6c1.2-0.6,2.5-1.5,3-3c0.1-0.2,0.1-0.4,0.1-0.6v-3.3c0-0.6-0.3-1.1-0.7-1.4c0,0-0.3-0.3-0.5-0.7
	c-0.3-0.5-0.5-1.3-0.6-1.8c-0.1-0.6-0.5-1.2-1.1-1.4c0,0-0.1-0.3-0.2-0.6c0-0.1,0,0-0.1-0.2h-0.2c0.7-0.4,1-1.2,0.8-1.9
	c-0.7-2.7-0.7-5.1-0.1-6.5C45.8,45.9,47,45,50,45z M79.9,51.3L84,52l-4.1,23.7V51.3z M93.4,56.3l6.2,1.4l-11.9,51.8L35.9,97.6l0.6-3
	l47.3,8c0.9,0.2,1.8-0.4,1.9-1.3l0.2-1.2c0.4-0.2,0.6-0.6,0.7-1l8.5-37.2c0.2-0.9-0.4-1.8-1.2-2l-1.1-0.3L93.4,56.3z"/>
</svg>
