<?xml version="1.0" encoding="utf-8"?>
<!-- Generator: Adobe Illustrator 24.3.0, SVG Export Plug-In . SVG Version: 6.00 Build 0)  -->
<svg version="1.1" id="Layer_1" xmlns="http://www.w3.org/2000/svg" xmlns:xlink="http://www.w3.org/1999/xlink" x="0px" y="0px"
	 viewBox="0 0 125 116" style="enable-background:new 0 0 125 116;" xml:space="preserve">
<style type="text/css">
	.st0{fill:#2C2A22;}
</style>
<path class="st0" d="M78.5,30c-1.8,0.1-3.6,0.5-5.3,1.4l-9.8,4.8H35.6l-15.8-3.8c-0.2-0.1-0.5-0.1-0.7-0.1c-0.9,0.1-1.5,0.8-1.6,1.7
	c0,0.9,0.5,1.6,1.4,1.8l16,3.9l0.2,0.1h21L41,47.1c-0.1,0-0.1,0.1-0.2,0.1c-2.4,1-3,4.2-1.2,6.1l-0.1,0.1c0,0,0.1,0,0.1,0.1
	c5.3,5.8,13.7,7.7,21.1,4.8h0.1l10.5-4.1l21.6,21.6c1.6,1.6,1.6,4.2,0,5.8c-1.6,1.6-4.2,1.6-5.8,0c-0.7-0.6-1.7-0.5-2.4,0.1
	c-0.6,0.6-0.7,1.7-0.1,2.4c1.6,1.6,1.6,4.3,0,5.9c-1.6,1.6-4.2,1.6-5.8,0l-1.3-1.3c-0.7-0.6-1.7-0.5-2.4,0.1
	c-0.6,0.6-0.7,1.7-0.1,2.4c1.6,1.6,1.6,4.3,0,5.9c-1.6,1.6-4.2,1.6-5.8,0l-1.2-1.3c-0.7-0.7-1.8-0.7-2.5,0s-0.7,1.8,0,2.5
	c1.6,1.6,1.6,4.3,0,5.9c-1.6,1.6-4.2,1.6-5.8,0l-2.2-2.2l1.3-1.3c2.6-2.6,2.6-6.8,0-9.4c-1.3-1.3-3-1.9-4.7-1.9c0,0,0,0-0.1,0
	c0-1.7-0.6-3.5-1.9-4.8c-1.3-1.3-3-1.9-4.7-1.9c-0.1,0-0.2,0-0.3,0c0.1-1.8-0.6-3.6-1.9-4.9c-1.3-1.3-3-2-4.7-2c-0.1,0-0.2,0-0.3,0
	c0.1-1.8-0.6-3.6-1.9-4.9c-1.3-1.3-3-1.9-4.7-1.9c-1.7,0-3.4,0.6-4.7,1.9l-1.6,1.6L19.6,71c-0.1,0-0.2,0-0.3-0.1
	c-1-0.1-1.8,0.7-1.9,1.7c-0.1,1,0.7,1.8,1.7,1.9l5.8,1.1c-0.5,2.2,0,4.6,1.7,6.3c1.4,1.4,3.2,2,5,1.9c-0.1,1.8,0.6,3.6,1.9,5
	c1.4,1.4,3.2,2,5,1.9c-0.1,1.8,0.6,3.6,1.9,4.9c1.3,1.3,3.1,2,4.8,1.9c0,1.8,0.6,3.5,1.9,4.8l0.1,0.1c1.9,1.8,4.5,2.3,6.8,1.5
	l2.7,2.7c3,3,7.9,3,10.9,0c1.5-1.4,2.1-3.4,2.2-5.3c2.6,0.7,5.4,0.2,7.4-1.8c1.5-1.4,2.2-3.4,2.2-5.3c2.6,0.7,5.4,0.2,7.4-1.8
	c1.7-1.7,2.4-4,2.1-6.3c2.2,0.2,4.6-0.4,6.3-2.1c1.9-1.9,2.6-4.6,2.1-7l1.1-1.1l6.6-0.9c1-0.2,1.7-1.1,1.5-2.1
	c-0.2-1-1.1-1.7-2.1-1.5l-7.1,1.1l-0.6,0.1l-1.1,1.1c-0.1-0.1-0.3-0.3-0.4-0.4L73.5,51.5c-0.1-0.1-0.2-0.2-0.3-0.2c0,0,0,0-0.1-0.1
	c-0.5-0.7-1.3-1-2.1-0.7l-11.6,4.4c-6.1,2.4-12.9,0.8-17.3-3.9L42.1,51c-0.2-0.2-0.2-0.4,0.1-0.5h0.1l0.1-0.1l22-10.7
	c0.4-0.1,0.7-0.2,1-0.5l9.4-4.6h0.1c3.3-1.6,7.1-1.3,10.1,0.7l0.7,0.8l0.2,0.2l0.2,0.1c3.2,2.2,7.1,2.8,10.8,1.8v0.1l0.1-0.1
	l8.3-1.7c1-0.2,1.6-1.2,1.4-2.1c-0.2-1-1.2-1.6-2.1-1.4l-8.4,1.8L96,34.9H96c-2.7,0.7-5.4,0.2-7.8-1.3l-0.7-0.8l-0.2-0.2l-0.2-0.2
	c-2-1.4-4.4-2.2-6.8-2.4C79.7,30,79.1,30,78.5,30z M33.1,72.2c0.8,0,1.6,0.3,2.2,1c1.3,1.3,1.3,3.1,0,4.4L34,78.9l-0.2,0.2l-0.2,0.3
	c-1.3,1.3-3.1,1.3-4.5,0c-1.1-1.1-1.2-2.5-0.6-3.7c0.3-0.2,0.5-0.5,0.7-0.9l1.4-1.4l0.2-0.3C31.5,72.5,32.3,72.2,33.1,72.2z
	 M40.1,79.1c0.8,0,1.6,0.3,2.2,1c1.3,1.3,1.3,3.1,0,4.4l-1.8,1.8c-1.3,1.3-3.1,1.3-4.5,0c-1.3-1.3-1.3-3.1,0-4.4l1.8-1.8
	C38.5,79.4,39.3,79.1,40.1,79.1z M47,86c0.8,0,1.5,0.3,2.2,1c1.1,1.1,1.3,2.5,0.6,3.7c-0.2,0.2-0.5,0.3-0.7,0.6L47.3,93v0.1h-0.1
	c-0.2,0.2-0.3,0.4-0.5,0.7c-1.2,0.7-2.6,0.5-3.7-0.6c-1.3-1.3-1.3-3.1,0-4.4l1.3-1.4l0.3-0.3l0.1-0.1C45.5,86.4,46.3,86,47,86z
	 M53.8,92.8c0.8,0,1.6,0.3,2.2,0.9c1.3,1.3,1.3,3.1,0,4.4l-1.8,1.8c-0.2,0.2-0.3,0.3-0.4,0.4c0,0,0,0-0.1,0c-1.2,0.9-2.8,0.7-4-0.4
	c-0.8-0.8-1-2.5-0.4-3.8c0.2-0.2,0.5-0.3,0.7-0.5l1.8-1.8c0.2-0.2,0.4-0.5,0.6-0.8C52.8,92.9,53.3,92.8,53.8,92.8z"/>
</svg>
