<svg width="125" height="116" viewBox="0 0 125 116" fill="none" xmlns="http://www.w3.org/2000/svg">
<path d="M56.9767 22L54.0109 23.9016L55.0962 25.6874C53.7015 27.4258 53.4691 29.9755 54.7891 31.9326C55.6082 33.2429 57.1078 33.9597 58.318 33.8903C59.5409 33.8201 60.4734 33.3398 61.2837 32.9781C62.0941 32.6163 62.7845 32.3726 63.055 32.3571C63.3255 32.3416 63.1628 32.1716 63.4611 32.6623L63.4884 32.7079L63.5192 32.75C64.0773 33.5561 63.8389 34.6101 62.9936 35.0832L62.9014 35.1358L62.8161 35.199C62.0325 35.7731 61.0096 35.5277 60.55 34.6587L57.4784 36.3778C58.5989 38.4966 60.9649 39.4134 63.1164 38.8794L64.1983 40.6582L67.1641 38.7566L66.0788 36.9743C67.4763 35.2358 67.7103 32.6841 66.3894 30.7256C65.5702 29.4153 64.0706 28.6985 62.8605 28.7679C61.6376 28.838 60.7051 29.3184 59.8947 29.6801C59.0844 30.0418 58.3939 30.2856 58.1234 30.3011C57.853 30.3166 58.0157 30.4866 57.7173 29.9959L57.69 29.9503L57.6593 29.9082C57.1011 29.1021 57.3396 28.0481 58.1849 27.575L58.277 27.5224L58.3623 27.4592C59.1459 26.8851 60.1689 27.1304 60.6285 27.9995L63.7 26.2804C62.5788 24.1602 60.2112 23.2459 58.0586 23.7823L56.9767 22ZM56.5126 24.4209C56.4821 24.4379 56.4674 24.4699 56.4375 24.4875C56.4054 24.5099 56.3668 24.5099 56.3351 24.5331L56.5126 24.4209ZM36.4416 28.4627L34.9945 29.9503C33.0337 28.9425 30.5682 29.2813 29.0084 31.0414C27.9478 32.1573 27.6054 33.8215 27.9435 35.02C28.285 36.2303 28.9501 37.0579 29.4759 37.7882C30.0017 38.5186 30.3866 39.1528 30.4622 39.4197C30.5378 39.6866 30.6623 39.4842 30.2643 39.8933L30.2267 39.9319L30.1926 39.9705C29.5535 40.711 28.5042 40.711 27.865 39.9705L27.7934 39.8933L27.7183 39.8197C26.998 39.1626 26.998 38.0839 27.7183 37.4269L25.3976 34.7394C23.6433 36.3395 23.309 38.9109 24.2986 40.9459L22.8516 42.4335L25.3225 44.9736L26.7695 43.486C28.7303 44.4938 31.1959 44.1549 32.7557 42.3949C33.8154 41.2797 34.1562 39.6135 33.8171 38.4163C33.4746 37.2073 32.8102 36.3814 32.2847 35.6516C31.7592 34.9217 31.3737 34.2871 31.2984 34.0201C31.2231 33.7532 31.0998 33.9541 31.4997 33.543L31.5373 33.5044L31.5714 33.4658C32.2105 32.7253 33.2599 32.7253 33.899 33.4658L33.9706 33.543L34.0457 33.6166C34.7661 34.2736 34.7661 35.3524 34.0457 36.0094L36.3665 38.6969C38.1208 37.0968 38.455 34.5254 37.4654 32.4904L38.9125 31.0028L36.4416 28.4627ZM88.2282 28.4627L85.7573 31.0028L87.2044 32.4904C86.2241 34.5062 86.5537 37.0408 88.2658 38.6443C89.351 39.7342 90.97 40.089 92.136 39.7425C93.3134 39.3925 94.118 38.7073 94.8287 38.1672C95.5394 37.627 96.1549 37.2314 96.4157 37.1532C96.6765 37.075 96.4827 36.9462 96.8798 37.3532L96.914 37.3918L96.9515 37.4269C97.6718 38.0839 97.6718 39.1626 96.9515 39.8197L96.8764 39.8933L96.8047 39.9705C96.1656 40.711 95.1163 40.711 94.4772 39.9705L91.8629 42.3563C93.4194 44.1597 95.9208 44.5034 97.9003 43.486L99.3473 44.9736L101.818 42.4335L100.371 40.9459C101.353 38.9272 101.021 36.388 99.303 34.785C98.2172 33.7023 96.601 33.3559 95.4396 33.7043C94.2648 34.0568 93.46 34.7402 92.7503 35.2797C92.0405 35.8191 91.4262 36.213 91.1667 36.2901C90.9072 36.3672 91.0994 36.4946 90.6991 36.0831L90.6616 36.0445L90.6241 36.0094C89.9037 35.3524 89.9037 34.2736 90.6241 33.6166L90.6991 33.543L90.7708 33.4658C91.4099 32.7253 92.4593 32.7253 93.0984 33.4658L95.7126 31.08C94.1561 29.2765 91.6548 28.9329 89.6753 29.9503L88.2282 28.4627ZM36.3665 30.9291L36.5132 31.08C36.4889 31.0518 36.4527 31.0443 36.4279 31.0168C36.4012 30.9913 36.3939 30.9541 36.3665 30.9291ZM88.3033 30.9291C88.2759 30.9541 88.2686 30.9913 88.2419 31.0168C88.2171 31.0443 88.1809 31.0518 88.1566 31.08L88.3033 30.9291ZM64.8433 38.125L64.6659 38.2373C64.6963 38.2203 64.711 38.1882 64.741 38.1707C64.773 38.1483 64.8116 38.1483 64.8433 38.125ZM25.2508 42.3563C25.2751 42.3845 25.3113 42.3919 25.3361 42.4194C25.3629 42.4449 25.3701 42.4822 25.3976 42.5072L25.2508 42.3563ZM99.419 42.3563L99.2722 42.5072C99.2997 42.4822 99.3069 42.4449 99.3337 42.4194C99.3585 42.3919 99.3947 42.3845 99.419 42.3563ZM61.4612 43.0054C58.6945 43.0054 56.3971 44.1366 54.9119 45.8543C53.4268 47.5719 52.7243 49.7916 52.7243 51.9871C52.7243 54.1827 53.4268 56.4023 54.9119 58.12C56.3971 59.8376 58.6945 60.9689 61.4612 60.9689C64.2279 60.9689 66.5253 59.8376 68.0105 58.12C69.4956 56.4023 70.1981 54.1827 70.1981 51.9871C70.1981 49.7916 69.4956 47.5719 68.0105 45.8543C66.5253 44.1366 64.2279 43.0054 61.4612 43.0054ZM41.1479 44.7772C40.5055 44.8183 39.8784 44.9771 39.2981 45.2333C38.1375 45.7455 37.1146 46.6587 36.5371 47.9243C35.9605 49.188 35.9144 50.7974 36.5439 52.3099C36.5449 52.3121 36.543 52.3148 36.5439 52.3169L40.0251 61.2601C40.0316 61.2777 40.0384 61.2953 40.0455 61.3127C40.3656 62.0634 40.8471 62.7291 41.4516 63.2634L41.3458 63.1617L51.8506 74.1363V91.5068V104.979C51.8506 106.925 52.6234 108.614 53.8028 109.691C54.9821 110.769 56.486 111.267 57.9664 111.267C59.4469 111.267 60.9508 110.769 62.1301 109.691C62.2155 109.613 62.2539 109.481 62.3349 109.397C62.4159 109.481 62.4543 109.613 62.5397 109.691C63.719 110.769 65.2229 111.267 66.7034 111.267C68.1838 111.267 69.6877 110.769 70.867 109.691C72.0464 108.614 72.8192 106.925 72.8192 104.979V91.5068V72.575L81.5971 63.1441L81.4708 63.2634C82.0753 62.7291 82.5568 62.0634 82.8769 61.3127C82.884 61.2953 82.8908 61.2777 82.8974 61.2601L86.3785 52.3169C86.3794 52.3148 86.3775 52.3121 86.3785 52.3099C87.008 50.7974 86.9619 49.188 86.3853 47.9243C85.8078 46.6587 84.7849 45.7455 83.6243 45.2333C82.4637 44.721 81.1195 44.5921 79.8292 45.0333C78.5389 45.4745 77.3662 46.5502 76.7337 48.0646C76.7278 48.0797 76.7222 48.0949 76.7167 48.1102L73.669 56.0219L67.8262 62.7652H55.0962L49.2534 56.0219L46.2057 48.1102C46.2003 48.0949 46.1946 48.0797 46.1887 48.0646C45.5562 46.5502 44.3835 45.4745 43.0932 45.0333C42.4481 44.8127 41.7903 44.736 41.1479 44.7772ZM61.4612 46.5981C63.3542 46.5981 64.5516 47.2632 65.3962 48.24C66.2409 49.2169 66.7034 50.59 66.7034 51.9871C66.7034 53.3843 66.2409 54.7573 65.3962 55.7342C64.5516 56.7111 63.3542 57.3762 61.4612 57.3762C59.5682 57.3762 58.3709 56.7111 57.5262 55.7342C56.6815 54.7573 56.2191 53.3843 56.2191 51.9871C56.2191 50.59 56.6815 49.2169 57.5262 48.24C58.3709 47.2632 59.5682 46.5981 61.4612 46.5981ZM41.3595 48.3663C41.5852 48.3513 41.8031 48.3758 41.9909 48.44C42.3651 48.568 42.6867 48.795 42.9738 49.4785L42.9772 49.4821L46.1204 57.6428C46.1961 57.8385 46.3047 58.019 46.4412 58.1761L53.011 65.758C53.1749 65.9467 53.3758 66.0977 53.6005 66.2011C53.8252 66.3045 54.0685 66.3579 54.3147 66.3579H68.6077C68.8539 66.3579 69.0973 66.3045 69.3219 66.2011C69.5466 66.0977 69.7475 65.9467 69.9114 65.758L76.4812 58.1761C76.6177 58.019 76.7263 57.8385 76.802 57.6428L79.9452 49.4821L79.9486 49.4785C80.2357 48.795 80.5573 48.568 80.9316 48.44C81.3071 48.3116 81.7985 48.3375 82.2455 48.5348C82.6925 48.732 83.0535 49.0821 83.2216 49.4505C83.3896 49.8188 83.4548 50.2104 83.167 50.8995C83.1611 50.9134 83.1554 50.9275 83.1499 50.9416L79.6756 59.8707C79.5657 60.1285 79.402 60.3573 79.1944 60.5408C79.1516 60.5785 79.1106 60.6183 79.0715 60.6601L69.8091 70.6137C69.498 70.9481 69.3244 71.393 69.3244 71.8557V91.5068V104.979C69.3244 106.027 69.0051 106.585 68.5463 107.004C68.0875 107.423 67.4072 107.674 66.7034 107.674C65.9995 107.674 65.3192 107.423 64.8604 107.004C64.4016 106.585 64.0823 106.027 64.0823 104.979V89.7105V87.9141C64.0855 87.6738 64.0417 87.4352 63.9536 87.2126C63.8655 86.99 63.7349 86.7878 63.5694 86.618C63.4039 86.4482 63.207 86.3142 62.9902 86.2241C62.7735 86.134 62.5414 86.0895 62.3076 86.0932C61.8448 86.1006 61.4037 86.2966 61.0812 86.6379C60.7587 86.9793 60.5812 87.4383 60.5875 87.9141V89.7105V104.979C60.5875 106.027 60.2682 106.585 59.8094 107.004C59.3506 107.423 58.6702 107.674 57.9664 107.674C57.2626 107.674 56.5823 107.423 56.1235 107.004C55.6647 106.585 55.3454 106.027 55.3454 104.979V91.5068V73.3995C55.3453 72.9282 55.1651 72.4759 54.8437 72.1399L43.8338 60.6426C43.7999 60.6072 43.7646 60.5732 43.728 60.5408C43.5204 60.3573 43.3567 60.1285 43.2468 59.8707L39.7725 50.9416C39.767 50.9275 39.7613 50.9134 39.7554 50.8995C39.4676 50.2104 39.5328 49.8188 39.7008 49.4505C39.8689 49.0821 40.2299 48.732 40.6769 48.5348C40.9004 48.4361 41.1338 48.3814 41.3595 48.3663Z" fill="white"/>
</svg>
