<svg width="125" height="116" viewBox="0 0 125 116" fill="none" xmlns="http://www.w3.org/2000/svg">
<path d="M34.2179 30.9863C33.4325 31.1344 32.866 31.8296 32.8789 32.6343V35.9303C32.8724 36.5226 33.1814 37.0762 33.6964 37.3788C34.2114 37.6749 34.8423 37.6749 35.3573 37.3788C35.8723 37.0762 36.1813 36.5226 36.1749 35.9303V34.2823H93.8549V72.1863H87.1084L88.9109 68.8903L87.1084 65.5943H72.4309V72.1863H54.3029C54.2514 72.1863 54.1999 72.1863 54.1484 72.1863C53.2407 72.2314 52.5326 73.0039 52.5776 73.9116C52.6227 74.8193 53.3952 75.5274 54.3029 75.4823H97.1509V77.1303H54.3029C53.7106 77.1239 53.157 77.4329 52.8544 77.9479C52.5583 78.4629 52.5583 79.0938 52.8544 79.6088C53.157 80.1238 53.7106 80.4328 54.3029 80.4263H98.7989C99.7066 80.4263 100.447 79.686 100.447 78.7783V73.8343C100.447 72.9266 99.7066 72.1863 98.7989 72.1863H97.1509V32.6343C97.1509 31.7266 96.4106 30.9863 95.5029 30.9863H34.5269C34.4754 30.9863 34.4239 30.9863 34.3724 30.9863C34.3209 30.9863 34.2694 30.9863 34.2179 30.9863ZM37.8229 39.2263C32.3832 39.2263 27.9349 43.6746 27.9349 49.1143C27.9349 54.554 32.3832 59.0023 37.8229 59.0023C43.2626 59.0023 47.7109 54.554 47.7109 49.1143C47.7109 43.6746 43.2626 39.2263 37.8229 39.2263ZM37.8229 59.0023H34.0119C32.7694 59.0023 30.9605 59.1568 29.2739 60.2898C27.5873 61.4228 26.2869 63.6051 26.2869 66.7273V84.4433C23.39 85.7244 21.3429 88.6084 21.3429 91.9623C21.3429 94.4601 22.5081 96.681 24.2784 98.1938C20.5897 100.125 18.0469 104.02 18.0469 108.442V111.738C18.0469 112.646 18.7872 113.386 19.6949 113.386H39.4709C39.5224 113.386 39.5739 113.386 39.6254 113.386H79.0229C79.0744 113.386 79.1259 113.386 79.1774 113.386H98.7989C99.7066 113.386 100.447 112.646 100.447 111.738V108.442C100.447 104.02 97.9041 100.125 94.2154 98.1938C95.9857 96.681 97.1509 94.4601 97.1509 91.9623C97.1509 87.4303 93.4429 83.7223 88.9109 83.7223C84.3789 83.7223 80.6709 87.4303 80.6709 91.9623C80.6709 94.4601 81.8361 96.681 83.6064 98.1938C81.7266 99.1788 80.1173 100.711 79.0229 102.52C77.9221 100.685 76.3384 99.1916 74.4394 98.1938C76.2097 96.681 77.3749 94.4601 77.3749 91.9623C77.3749 87.4303 73.6669 83.7223 69.1349 83.7223C64.6029 83.7223 60.8949 87.4303 60.8949 91.9623C60.8949 94.4601 62.0601 96.681 63.8304 98.1938C61.9506 99.1788 60.3413 100.711 59.2469 102.52C58.1461 100.698 56.5624 99.1852 54.6634 98.1938C56.4337 96.681 57.5989 94.4601 57.5989 91.9623C57.5989 87.9968 54.7535 84.6493 51.0069 83.8768V68.8903L58.0624 66.3668L58.1139 66.3153C58.1268 66.3089 58.1525 66.3218 58.1654 66.3153C59.5688 65.8905 60.7211 65.1373 61.5129 64.1008H61.5644L69.8044 53.4403C69.8044 53.421 69.8044 53.4081 69.8044 53.3888C71.3236 51.3675 71.0919 48.3805 68.9804 46.7968C67.9697 46.0372 66.7273 45.7411 65.5299 45.8698C64.3325 45.9986 63.1802 46.5651 62.3884 47.6208L55.3329 56.7363L44.4149 59.0023H37.8229ZM37.8229 42.5223C41.4858 42.5223 44.4149 45.4514 44.4149 49.1143C44.4149 52.7773 41.4858 55.7063 37.8229 55.7063C34.1599 55.7063 31.2309 52.7773 31.2309 49.1143C31.2309 45.4514 34.1599 42.5223 37.8229 42.5223ZM65.8904 49.1658C66.2509 49.1208 66.6629 49.1916 66.9719 49.4233C67.4869 49.8096 67.5963 50.7623 67.1779 51.3803C67.165 51.3932 67.1908 51.419 67.1779 51.4318L58.9379 62.0923C58.9379 62.1116 58.9379 62.1245 58.9379 62.1438C58.7576 62.382 57.9723 62.9356 57.1354 63.1738C57.1032 63.1867 57.0646 63.206 57.0324 63.2253L48.7924 66.1608C48.1229 66.4055 47.6916 67.0492 47.7109 67.7573V83.8768C43.9643 84.6493 41.1189 87.9968 41.1189 91.9623C41.1189 94.4601 42.2841 96.681 44.0544 98.1938C42.1746 99.1788 40.5653 100.711 39.4709 102.52C38.3701 100.685 36.7864 99.1916 34.8874 98.1938C36.6577 96.681 37.8229 94.4601 37.8229 91.9623C37.8229 87.4303 34.1149 83.7223 29.5829 83.7223V66.7273C29.5829 64.4098 30.2524 63.573 31.0764 63.0193C31.9004 62.4657 33.1106 62.2983 34.0119 62.2983H44.4149C44.5372 62.2919 44.6595 62.279 44.7754 62.2468L56.6204 59.7748C57.0002 59.704 57.3478 59.5045 57.5989 59.2083L65.0149 49.6293C65.2144 49.3654 65.5299 49.2109 65.8904 49.1658ZM29.5829 87.0183C32.3317 87.0183 34.5269 89.2135 34.5269 91.9623C34.5269 94.7111 32.3317 96.9063 29.5829 96.9063C26.8341 96.9063 24.6389 94.7111 24.6389 91.9623C24.6389 89.735 26.0809 87.8488 28.0894 87.2243C28.1859 87.1921 28.3018 87.1986 28.3984 87.1728C28.4692 87.16 28.54 87.1406 28.6044 87.1213C28.9263 87.057 29.2417 87.0183 29.5829 87.0183ZM69.1349 87.0183C71.8837 87.0183 74.0789 89.2135 74.0789 91.9623C74.0789 94.7111 71.8837 96.9063 69.1349 96.9063C66.3861 96.9063 64.1909 94.7111 64.1909 91.9623C64.1909 89.2135 66.3861 87.0183 69.1349 87.0183ZM88.9109 87.0183C91.6597 87.0183 93.8549 89.2135 93.8549 91.9623C93.8549 94.7111 91.6597 96.9063 88.9109 96.9063C86.1621 96.9063 83.9669 94.7111 83.9669 91.9623C83.9669 89.2135 86.1621 87.0183 88.9109 87.0183ZM48.9469 87.0698C48.9662 87.0698 48.9791 87.0698 48.9984 87.0698C49.2173 87.1149 49.449 87.1149 49.6679 87.0698C49.6872 87.0698 49.7001 87.0698 49.7194 87.0698C52.2879 87.263 54.3029 89.3423 54.3029 91.9623C54.3029 94.7111 52.1077 96.9063 49.3589 96.9063C46.6101 96.9063 44.4149 94.7111 44.4149 91.9623C44.4149 89.3551 46.4041 87.2823 48.9469 87.0698ZM29.5829 100.202C34.1213 100.202 37.8229 103.904 37.8229 108.442V110.09H21.3429V108.442C21.3429 103.904 25.0444 100.202 29.5829 100.202ZM49.3589 100.202C53.8973 100.202 57.5989 103.904 57.5989 108.442V110.09H41.1189V108.442C41.1189 103.904 44.8204 100.202 49.3589 100.202ZM69.1349 100.202C73.6733 100.202 77.3749 103.904 77.3749 108.442V110.09H60.8949V108.442C60.8949 103.904 64.5964 100.202 69.1349 100.202ZM88.9109 100.202C93.4493 100.202 97.1509 103.904 97.1509 108.442V110.09H80.6709V108.442C80.6709 103.904 84.3724 100.202 88.9109 100.202Z" fill="white"/>
</svg>
