<svg width="125" height="116" viewBox="0 0 125 116" fill="none" xmlns="http://www.w3.org/2000/svg">
<path d="M24.75 29C20.4759 29 17 32.4599 17 36.7143V83C17 87.2544 20.4759 90.7143 24.75 90.7143H67.4734C67.4211 90.0759 67.375 89.4376 67.375 88.7857C67.375 88.1339 67.4211 87.4955 67.4734 86.8571H24.75C22.6129 86.8571 20.875 85.1272 20.875 83V36.7143C20.875 34.5871 22.6129 32.8571 24.75 32.8571H98.375C100.512 32.8571 102.25 34.5871 102.25 36.7143V68.7617C103.641 69.564 104.935 70.5072 106.125 71.5679V36.7143C106.125 32.4599 102.649 29 98.375 29H24.75ZM45.9036 40.5714C41.6028 40.65 38.5679 42.67 37.3665 45.5134C36.2922 48.0556 36.5347 50.9044 37.1508 53.6609C36.7962 54.2429 36.4495 55.0693 36.4885 56.1507V56.1544C36.5426 57.6365 37.1105 58.8002 37.7146 59.5181C38.023 59.8847 38.1443 59.8966 38.4147 60.0831C38.7234 61.0476 39.0613 62.0213 39.5651 62.6897C39.9136 63.1521 40.3039 63.37 40.636 63.6917C40.6584 64.4888 40.6828 65.2287 40.6436 65.9743C40.491 66.2848 40.1581 66.6513 39.2548 67.1044C38.277 67.5948 36.8793 68.076 35.4062 68.7128C33.9332 69.3495 32.3527 70.1519 31.0393 71.4888C29.7259 72.8258 28.771 74.7418 28.6288 77.0975C28.6128 77.3601 28.651 77.6232 28.7409 77.8705C28.8309 78.1179 28.9707 78.3443 29.1518 78.5359C29.333 78.7275 29.5515 78.8802 29.7941 78.9845C30.0367 79.0889 30.2982 79.1428 30.5625 79.1429H61.5625C61.8268 79.1428 62.0883 79.0889 62.3309 78.9845C62.5735 78.8802 62.792 78.7275 62.9732 78.5359C63.1543 78.3443 63.2941 78.1179 63.3841 77.8705C63.474 77.6232 63.5122 77.3601 63.4962 77.0975C63.354 74.7418 62.3991 72.8257 61.0857 71.4888C59.7722 70.1519 58.1882 69.3494 56.715 68.7128C55.2417 68.0761 53.8446 67.5946 52.8665 67.1044C51.9654 66.6527 51.6352 66.2878 51.4814 65.9781C51.4417 65.2282 51.4665 64.4847 51.489 63.6804C51.8629 63.3279 52.3167 63.0889 52.647 62.6144C53.1194 61.9355 53.3958 60.9983 53.6649 60.0756C54.2985 59.619 55.5532 58.5657 55.5532 56.3691C55.5532 55.4928 55.1042 54.9627 54.8494 54.32C55.3101 52.8392 55.857 50.6178 55.61 48.1915C55.4775 46.8897 55.1188 45.5224 54.1644 44.3721C53.3723 43.4173 52.0901 42.858 50.6792 42.6582C49.5584 41.4412 47.9852 40.5714 45.9414 40.5714C45.9288 40.5713 45.9162 40.5713 45.9036 40.5714ZM45.9528 44.4323C47.2184 44.4393 48.0228 45.1343 48.1552 45.3665C48.3243 45.6626 48.5692 45.9089 48.865 46.0803C49.1608 46.2516 49.4969 46.342 49.8391 46.3421C50.7109 46.3421 50.9281 46.5259 51.1787 46.828C51.4293 47.1301 51.6689 47.7448 51.7539 48.5795C51.9238 50.249 51.4333 52.5971 51.1144 53.5516C51.002 53.8893 50.9857 54.2513 51.0672 54.5977C51.1487 54.944 51.3248 55.2612 51.576 55.5141C51.2049 55.1434 51.6782 55.7008 51.6782 56.3691C51.6782 56.7215 51.0841 57.2506 51.0841 57.2506C50.847 57.4001 50.6453 57.5992 50.493 57.834C50.3408 58.0687 50.2416 58.3336 50.2024 58.6104C50.1121 59.2456 49.8133 59.9079 49.4607 60.4146C49.1081 60.9213 48.6091 61.2637 48.7152 61.2132C48.3854 61.3703 48.107 61.6171 47.9121 61.925C47.7173 62.2329 47.6139 62.5895 47.614 62.9534C47.614 64.0867 47.4802 65.1535 47.6216 66.7239C47.6368 66.8952 47.675 67.0637 47.7351 67.2249C48.3673 68.9159 49.7837 69.8745 51.1257 70.5472C52.4678 71.2199 53.8917 71.6952 55.1748 72.2497C56.4579 72.8042 57.5681 73.4249 58.3157 74.1858C58.577 74.4518 58.5836 74.9721 58.7736 75.2857H33.3514C33.5414 74.9721 33.548 74.4518 33.8093 74.1858C34.557 73.4248 35.6672 72.8043 36.9502 72.2497C38.2332 71.6951 39.6573 71.2203 40.9993 70.5472C42.3412 69.874 43.7586 68.9126 44.3899 67.2211C44.4497 67.0611 44.4878 66.8939 44.5034 66.7239C44.6448 65.1521 44.511 64.0867 44.511 62.9534C44.5114 62.6013 44.415 62.2558 44.2323 61.9543C44.0495 61.6529 43.7873 61.407 43.4741 61.2433C43.775 61.4004 43.0802 60.9288 42.6643 60.377C42.2484 59.8252 41.9095 59.1281 41.8394 58.6179C41.7959 58.3008 41.6739 57.9995 41.4843 57.7411C41.2947 57.4827 41.0435 57.2753 40.7533 57.1376C40.7533 57.1376 40.8105 57.1886 40.6852 57.0396C40.5598 56.8907 40.3832 56.6545 40.3597 56.0113C40.3555 55.8184 40.5527 55.5141 40.5527 55.5141C40.7893 55.2765 40.9597 54.9818 41.0473 54.6589C41.1349 54.336 41.1366 53.9959 41.0522 53.6722C40.3706 51.0692 40.2889 48.5466 40.9387 47.0088C41.5865 45.4759 42.6755 44.4983 45.9528 44.4323ZM69.3125 48.2857C69.0558 48.2821 68.8009 48.3293 68.5626 48.4246C68.3244 48.5199 68.1075 48.6614 67.9247 48.8408C67.7418 49.0203 67.5966 49.2341 67.4975 49.4699C67.3984 49.7057 67.3474 49.9587 67.3474 50.2143C67.3474 50.4699 67.3984 50.7229 67.4975 50.9587C67.5966 51.1945 67.7418 51.4083 67.9247 51.5877C68.1075 51.7672 68.3244 51.9087 68.5626 52.004C68.8009 52.0993 69.0558 52.1465 69.3125 52.1429H92.5625C92.8192 52.1465 93.0741 52.0993 93.3124 52.004C93.5506 51.9087 93.7675 51.7672 93.9503 51.5877C94.1332 51.4083 94.2784 51.1945 94.3775 50.9587C94.4766 50.7229 94.5276 50.4699 94.5276 50.2143C94.5276 49.9587 94.4766 49.7057 94.3775 49.4699C94.2784 49.2341 94.1332 49.0203 93.9503 48.8408C93.7675 48.6614 93.5506 48.5199 93.3124 48.4246C93.0741 48.3293 92.8192 48.2821 92.5625 48.2857H69.3125ZM69.3125 57.9286C69.0558 57.925 68.8009 57.9722 68.5626 58.0675C68.3244 58.1628 68.1075 58.3042 67.9247 58.4837C67.7418 58.6631 67.5966 58.877 67.4975 59.1127C67.3984 59.3485 67.3474 59.6016 67.3474 59.8571C67.3474 60.1127 67.3984 60.3658 67.4975 60.6015C67.5966 60.8373 67.7418 61.0512 67.9247 61.2306C68.1075 61.41 68.3244 61.5515 68.5626 61.6468C68.8009 61.7421 69.0558 61.7893 69.3125 61.7857H92.5625C92.8192 61.7893 93.0741 61.7421 93.3124 61.6468C93.5506 61.5515 93.7675 61.41 93.9503 61.2306C94.1332 61.0512 94.2784 60.8373 94.3775 60.6015C94.4766 60.3658 94.5276 60.1127 94.5276 59.8571C94.5276 59.6016 94.4766 59.3485 94.3775 59.1127C94.2784 58.877 94.1332 58.6631 93.9503 58.4837C93.7675 58.3042 93.5506 58.1628 93.3124 58.0675C93.0741 57.9722 92.8192 57.925 92.5625 57.9286H69.3125ZM69.3125 67.5714C68.2411 67.5714 67.375 68.4354 67.375 69.5C67.375 70.5646 68.2411 71.4286 69.3125 71.4286H77.7815C81.4627 68.9947 85.8762 67.5714 90.625 67.5714H69.3125ZM90.625 71.4286C79.9688 71.4286 71.25 80.1071 71.25 90.7143C71.25 101.321 79.9688 110 90.625 110C101.281 110 110 101.321 110 90.7143C110 80.1071 101.281 71.4286 90.625 71.4286ZM90.625 75.2857C99.15 75.2857 106.125 82.2286 106.125 90.7143C106.125 99.2 99.15 106.143 90.625 106.143C82.1 106.143 75.125 99.2 75.125 90.7143C75.125 82.2286 82.1 75.2857 90.625 75.2857ZM98.9578 81.8436L88.4945 93.9914L82.0992 89.1699L79.7758 92.2587L88.8805 99.2008L101.864 84.3485L98.9578 81.8436Z" fill="white"/>
</svg>
